<svg width="512" height="512" viewBox="0 0 512 512" fill="none" xmlns="http://www.w3.org/2000/svg">
<rect width="512" height="512" fill="#1B1B1B"/>
<g clip-path="url(#clip0_500_727)">
<path d="M195.84 328.32L198.507 352L215.787 335.573L245.333 254.507C238.08 252.693 231.68 249.067 226.453 244.053L195.84 328.32ZM285.547 244.053C280.32 249.067 273.813 252.693 266.667 254.507L296.213 335.573L313.493 352L316.267 328.32L285.547 244.053ZM288 213.333C288 199.467 279.04 187.733 266.667 183.253V160H245.333V183.253C232.96 187.733 224 199.467 224 213.333C224 231.04 238.293 245.333 256 245.333C273.707 245.333 288 231.04 288 213.333ZM256 224C250.133 224 245.333 219.2 245.333 213.333C245.333 207.467 250.133 202.667 256 202.667C261.867 202.667 266.667 207.467 266.667 213.333C266.667 219.2 261.867 224 256 224Z" fill="#CECECE"/>
</g>
<defs>
<clipPath id="clip0_500_727">
<rect width="256" height="256" fill="white" transform="translate(128 128)"/>
</clipPath>
</defs>
</svg>
