<svg width="2410" height="1722" viewBox="0 0 2410 1722" fill="none" xmlns="http://www.w3.org/2000/svg">
<mask id="mask0_137_269" style="mask-type:luminance" maskUnits="userSpaceOnUse" x="0" y="0" width="2410" height="1722">
<path d="M0 0H2410V1721.24H0V0Z" fill="white"/>
</mask>
<g mask="url(#mask0_137_269)">
<path d="M710.232 655.337H533.138V805.031H710.232V655.337Z" fill="url(#paint0_radial_137_269)" fill-opacity="0.14"/>
<g filter="url(#filter0_dd_137_269)">
<path d="M1418.61 206.259H1241.51V355.952H1418.61V206.259Z" fill="url(#paint1_radial_137_269)" fill-opacity="0.08"/>
</g>
<path d="M1241.51 1104.41H1064.42V1254.11H1241.51V1104.41Z" fill="url(#paint2_radial_137_269)" fill-opacity="0.06"/>
<path d="M1949.89 805.03H1772.8V954.721H1949.89V805.03Z" fill="url(#paint3_radial_137_269)" fill-opacity="0.06"/>
<g filter="url(#filter1_dd_137_269)">
<path d="M1418.61 655.337H1241.51V805.031H1418.61V655.337Z" fill="#F44324" fill-opacity="0.31"/>
</g>
<path d="M178.948 -392.509H1.85352V-242.816M178.948 -392.509V-242.816M178.948 -392.509H356.042M1.85352 -242.816H178.948M1.85352 -242.816V-93.1249M178.948 -242.816H356.042M178.948 -242.816V-93.1249M356.042 -392.509V-242.816M356.042 -392.509H533.137M356.042 -242.816H533.137M356.042 -242.816V-93.1249M178.948 -93.1249H1.85352M178.948 -93.1249H356.042M178.948 -93.1249V56.5684M1.85352 -93.1249V56.5684M533.137 -392.509V-242.816M533.137 -392.509H710.231M533.137 -242.816H710.231M533.137 -242.816V-93.1249M356.042 -93.1249H533.137M356.042 -93.1249V56.5684M710.231 -392.509V-242.816M710.231 -392.509H887.325M710.231 -242.816H887.325M710.231 -242.816V-93.1249M533.137 -93.1249H710.231M533.137 -93.1249V56.5684M887.325 -392.509V-242.816M887.325 -392.509H1064.42M887.325 -242.816H1064.42M887.325 -242.816V-93.1249M710.231 -93.1249H887.325M710.231 -93.1249V56.5684M1064.42 -392.509V-242.816M1064.42 -392.509H1241.51M1064.42 -242.816H1241.51M1064.42 -242.816V-93.1249M887.325 -93.1249H1064.42M887.325 -93.1249V56.5684M1241.51 -392.509V-242.816M1241.51 -392.509H1418.61M1241.51 -242.816H1418.61M1241.51 -242.816V-93.1249M1064.42 -93.1249H1241.51M1064.42 -93.1249V56.5684M1418.61 -392.509V-242.816M1418.61 -392.509H1595.7M1418.61 -242.816H1595.7M1418.61 -242.816V-93.1249M1241.51 -93.1249H1418.61M1241.51 -93.1249V56.5684M1595.7 -392.509V-242.816M1595.7 -392.509H1772.8M1595.7 -242.816H1772.8M1595.7 -242.816V-93.1249M1418.61 -93.1249H1595.7M1418.61 -93.1249V56.5684M1772.8 -392.509V-242.816M1772.8 -392.509H1949.89M1772.8 -242.816H1949.89M1772.8 -242.816V-93.1249M1595.7 -93.1249H1772.8M1595.7 -93.1249V56.5684M1949.89 -392.509V-242.816M1949.89 -392.509H2126.99M1949.89 -242.816H2126.99M1949.89 -242.816V-93.1249M1772.8 -93.1249H1949.89M1772.8 -93.1249V56.5684M2126.99 -392.509V-242.816M2126.99 -392.509H2304.08M2126.99 -242.816H2304.08M2126.99 -242.816V-93.1249M1949.89 -93.1249H2126.99M1949.89 -93.1249V56.5684M2304.08 -392.509V-242.816M2304.08 -392.509H2481.17M2304.08 -242.816H2481.17M2304.08 -242.816V-93.1249M2126.99 -93.1249H2304.08M2126.99 -93.1249V56.5684M2481.17 -392.509V-242.816M2481.17 -392.509H2658.27V-242.816M2481.17 -242.816H2658.27M2481.17 -242.816V-93.1249M2304.08 -93.1249H2481.17M2304.08 -93.1249V56.5684M2658.27 -242.816V-93.1249M2481.17 -93.1249H2658.27M2481.17 -93.1249V56.5684M2658.27 -93.1249V56.5684M178.948 56.5684H1.85352M178.948 56.5684H356.042M178.948 56.5684V206.259M1.85352 56.5684V206.259M356.042 56.5684H533.137M356.042 56.5684V206.259M533.137 56.5684H710.231M533.137 56.5684V206.259M710.231 56.5684H887.325M710.231 56.5684V206.259M887.325 56.5684H1064.42M887.325 56.5684V206.259M1064.42 56.5684H1241.51M1064.42 56.5684V206.259M1241.51 56.5684H1418.61M1241.51 56.5684V206.259M1418.61 56.5684H1595.7M1418.61 56.5684V206.259M1595.7 56.5684H1772.8M1595.7 56.5684V206.259M1772.8 56.5684H1949.89M1772.8 56.5684V206.259M1949.89 56.5684H2126.99M1949.89 56.5684V206.259M2126.99 56.5684H2304.08M2126.99 56.5684V206.259M2304.08 56.5684H2481.17M2304.08 56.5684V206.259M2481.17 56.5684H2658.27M2481.17 56.5684V206.259M2658.27 56.5684V206.259M178.948 206.259H1.85352M178.948 206.259H356.042M178.948 206.259V355.953M1.85352 206.259V355.953M356.042 206.259H533.137M356.042 206.259V355.953M533.137 206.259H710.231M533.137 206.259V355.953M710.231 206.259H887.325M710.231 206.259V355.953M887.325 206.259H1064.42M887.325 206.259V355.953M1064.42 206.259H1241.51M1064.42 206.259V355.953M1241.51 206.259H1418.61M1241.51 206.259V355.953M1418.61 206.259H1595.7M1418.61 206.259V355.953M1595.7 206.259H1772.8M1595.7 206.259V355.953M1772.8 206.259H1949.89M1772.8 206.259V355.953M1949.89 206.259H2126.99M1949.89 206.259V355.953M2126.99 206.259H2304.08M2126.99 206.259V355.953M2304.08 206.259H2481.17M2304.08 206.259V355.953M2481.17 206.259H2658.27M2481.17 206.259V355.953M2658.27 206.259V355.953M178.948 355.953H1.85352M178.948 355.953H356.042M178.948 355.953V505.646M1.85352 355.953V505.646M356.042 355.953H533.137M356.042 355.953V505.646M533.137 355.953H710.231M533.137 355.953V505.646M710.231 355.953H887.325M710.231 355.953V505.646M887.325 355.953H1064.42M887.325 355.953V505.646M1064.42 355.953H1241.51M1064.42 355.953V505.646M1241.51 355.953H1418.61M1241.51 355.953V505.646M1418.61 355.953H1595.7M1418.61 355.953V505.646M1595.7 355.953H1772.8M1595.7 355.953V505.646M1772.8 355.953H1949.89M1772.8 355.953V505.646M1949.89 355.953H2126.99M1949.89 355.953V505.646M2126.99 355.953H2304.08M2126.99 355.953V505.646M2304.08 355.953H2481.17M2304.08 355.953V505.646M2481.17 355.953H2658.27M2481.17 355.953V505.646M2658.27 355.953V505.646M178.948 505.646H1.85352M178.948 505.646H356.042M178.948 505.646V655.337M1.85352 505.646V655.337M356.042 505.646H533.137M356.042 505.646V655.337M533.137 505.646H710.231M533.137 505.646V655.337M710.231 505.646H887.325M710.231 505.646V655.337M887.325 505.646H1064.42M887.325 505.646V655.337M1064.42 505.646H1241.51M1064.42 505.646V655.337M1241.51 505.646H1418.61M1241.51 505.646V655.337M1418.61 505.646H1595.7M1418.61 505.646V655.337M1595.7 505.646H1772.8M1595.7 505.646V655.337M1772.8 505.646H1949.89M1772.8 505.646V655.337M1949.89 505.646H2126.99M1949.89 505.646V655.337M2126.99 505.646H2304.08M2126.99 505.646V655.337M2304.08 505.646H2481.17M2304.08 505.646V655.337M2481.17 505.646H2658.27M2481.17 505.646V655.337M2658.27 505.646V655.337M178.948 655.337H1.85352M178.948 655.337H356.042M178.948 655.337V805.03M1.85352 655.337V805.03M356.042 655.337H533.137M356.042 655.337V805.03M533.137 655.337H710.231M533.137 655.337V805.03M710.231 655.337H887.325M710.231 655.337V805.03M887.325 655.337H1064.42M887.325 655.337V805.03M1064.42 655.337H1241.51M1064.42 655.337V805.03M1241.51 655.337H1418.61M1241.51 655.337V805.03M1418.61 655.337H1595.7M1418.61 655.337V805.03M1595.7 655.337H1772.8M1595.7 655.337V805.03M1772.8 655.337H1949.89M1772.8 655.337V805.03M1949.89 655.337H2126.99M1949.89 655.337V805.03M2126.99 655.337H2304.08M2126.99 655.337V805.03M2304.08 655.337H2481.17M2304.08 655.337V805.03M2481.17 655.337H2658.27M2481.17 655.337V805.03M2658.27 655.337V805.03M178.948 805.03H1.85352M178.948 805.03H356.042M178.948 805.03V954.721M1.85352 805.03V954.721M356.042 805.03H533.137M356.042 805.03V954.721M533.137 805.03H710.231M533.137 805.03V954.721M710.231 805.03H887.325M710.231 805.03V954.721M887.325 805.03H1064.42M887.325 805.03V954.721M1064.42 805.03H1241.51M1064.42 805.03V954.721M1241.51 805.03H1418.61M1241.51 805.03V954.721M1418.61 805.03H1595.7M1418.61 805.03V954.721M1595.7 805.03H1772.8M1595.7 805.03V954.721M1772.8 805.03H1949.89M1772.8 805.03V954.721M1949.89 805.03H2126.99M1949.89 805.03V954.721M2126.99 805.03H2304.08M2126.99 805.03V954.721M2304.08 805.03H2481.17M2304.08 805.03V954.721M2481.17 805.03H2658.27M2481.17 805.03V954.721M2658.27 805.03V954.721M178.948 954.721H1.85352M178.948 954.721H356.042M178.948 954.721V1104.41M1.85352 954.721V1104.41M356.042 954.721H533.137M356.042 954.721V1104.41M533.137 954.721H710.231M533.137 954.721V1104.41M710.231 954.721H887.325M710.231 954.721V1104.41M887.325 954.721H1064.42M887.325 954.721V1104.41M1064.42 954.721H1241.51M1064.42 954.721V1104.41M1241.51 954.721H1418.61M1241.51 954.721V1104.41M1418.61 954.721H1595.7M1418.61 954.721V1104.41M1595.7 954.721H1772.8M1595.7 954.721V1104.41M1772.8 954.721H1949.89M1772.8 954.721V1104.41M1949.89 954.721H2126.99M1949.89 954.721V1104.41M2126.99 954.721H2304.08M2126.99 954.721V1104.41M2304.08 954.721H2481.17M2304.08 954.721V1104.41M2481.17 954.721H2658.27M2481.17 954.721V1104.41M2658.27 954.721V1104.41M178.948 1104.41H1.85352M178.948 1104.41H356.042M178.948 1104.41V1254.11M1.85352 1104.41V1254.11M356.042 1104.41V1254.11M356.042 1104.41H444.589H533.137M533.137 1104.41H710.231M533.137 1104.41V1254.11M710.231 1104.41H887.325M710.231 1104.41V1254.11M887.325 1104.41H1064.42M887.325 1104.41V1254.11M1064.42 1104.41H1241.51M1064.42 1104.41V1254.11M1241.51 1104.41H1418.61M1241.51 1104.41V1254.11M1418.61 1104.41H1595.7M1418.61 1104.41V1254.11M1595.7 1104.41H1772.8M1595.7 1104.41V1254.11M1772.8 1104.41H1949.89M1772.8 1104.41V1254.11M1949.89 1104.41H2126.99M1949.89 1104.41V1254.11M2126.99 1104.41H2304.08M2126.99 1104.41V1254.11M2304.08 1104.41H2481.17M2304.08 1104.41V1254.11M2481.17 1104.41H2658.27M2481.17 1104.41V1254.11M2658.27 1104.41V1254.11M178.948 1254.11H1.85352M178.948 1254.11H356.042M178.948 1254.11V1403.8M1.85352 1254.11V1403.8M356.042 1254.11H533.137M356.042 1254.11V1403.8M533.137 1254.11H710.231M533.137 1254.11V1403.8M710.231 1254.11H887.325M710.231 1254.11V1403.8M887.325 1254.11H1064.42M887.325 1254.11V1403.8M1064.42 1254.11H1241.51M1064.42 1254.11V1403.8M1241.51 1254.11H1418.61M1241.51 1254.11V1403.8M1418.61 1254.11H1595.7M1418.61 1254.11V1403.8M1595.7 1254.11H1772.8M1595.7 1254.11V1403.8M1772.8 1254.11H1949.89M1772.8 1254.11V1403.8M1949.89 1254.11H2126.99M1949.89 1254.11V1403.8M2126.99 1254.11H2304.08M2126.99 1254.11V1403.8M2304.08 1254.11H2481.17M2304.08 1254.11V1403.8M2481.17 1254.11H2658.27M2481.17 1254.11V1403.8M2658.27 1254.11V1403.8M178.948 1403.8H1.85352M178.948 1403.8H356.042M178.948 1403.8V1553.49M1.85352 1403.8V1553.49M356.042 1403.8H533.137M356.042 1403.8V1553.49M533.137 1403.8H710.231M533.137 1403.8V1553.49M710.231 1403.8H887.325M710.231 1403.8V1553.49M887.325 1403.8H1064.42M887.325 1403.8V1553.49M1064.42 1403.8H1241.51M1064.42 1403.8V1553.49M1241.51 1403.8H1418.61M1241.51 1403.8V1553.49M1418.61 1403.8H1595.7M1418.61 1403.8V1553.49M1595.7 1403.8H1772.8M1595.7 1403.8V1553.49M1772.8 1403.8H1949.89M1772.8 1403.8V1553.49M1949.89 1403.8H2126.99M1949.89 1403.8V1553.49M2126.99 1403.8H2304.08M2126.99 1403.8V1553.49M2304.08 1403.8H2481.17M2304.08 1403.8V1553.49M2481.17 1403.8H2658.27M2481.17 1403.8V1553.49M2658.27 1403.8V1553.49M178.948 1553.49H1.85352M178.948 1553.49H356.042M178.948 1553.49V1703.18M1.85352 1553.49V1703.18M356.042 1553.49H533.137M356.042 1553.49V1703.18M533.137 1553.49H710.231M533.137 1553.49V1703.18M710.231 1553.49H887.325M710.231 1553.49V1703.18M887.325 1553.49H1064.42M887.325 1553.49V1703.18M1064.42 1553.49H1241.51M1064.42 1553.49V1703.18M1241.51 1553.49H1418.61M1241.51 1553.49V1703.18M1418.61 1553.49H1595.7M1418.61 1553.49V1703.18M1595.7 1553.49H1772.8M1595.7 1553.49V1703.18M1772.8 1553.49H1949.89M1772.8 1553.49V1703.18M1949.89 1553.49H2126.99M1949.89 1553.49V1703.18M2126.99 1553.49H2304.08M2126.99 1553.49V1703.18M2304.08 1553.49H2481.17M2304.08 1553.49V1703.18M2481.17 1553.49H2658.27M2481.17 1553.49V1703.18M2658.27 1553.49V1703.18M178.948 1703.18H1.85352M178.948 1703.18H356.042M178.948 1703.18V1852.88M1.85352 1703.18V1852.88H178.948M356.042 1703.18H533.137M356.042 1703.18V1852.88M533.137 1703.18H710.231M533.137 1703.18V1852.88M710.231 1703.18H887.325M710.231 1703.18V1852.88M887.325 1703.18H1064.42M887.325 1703.18V1852.88M1064.42 1703.18H1241.51M1064.42 1703.18V1852.88M1241.51 1703.18H1418.61M1241.51 1703.18V1852.88M1418.61 1703.18H1595.7M1418.61 1703.18V1852.88M1595.7 1703.18H1772.8M1595.7 1703.18V1852.88M1772.8 1703.18H1949.89M1772.8 1703.18V1852.88M1949.89 1703.18H2126.99M1949.89 1703.18V1852.88M2126.99 1703.18H2304.08M2126.99 1703.18V1852.88M2304.08 1703.18H2481.17M2304.08 1703.18V1852.88M2481.17 1703.18H2658.27M2481.17 1703.18V1852.88M2658.27 1703.18V1852.88H2481.17M178.948 1852.88H356.042M356.042 1852.88H533.137M533.137 1852.88H710.231M710.231 1852.88H887.325M887.325 1852.88H1064.42M1064.42 1852.88H1241.51M1241.51 1852.88H1418.61M1418.61 1852.88H1595.7M1595.7 1852.88H1772.8M1772.8 1852.88H1949.89M1949.89 1852.88H2126.99M2126.99 1852.88H2304.08M2304.08 1852.88H2481.17" stroke="url(#paint4_radial_137_269)" stroke-opacity="0.2"/>
</g>
<defs>
<filter id="filter0_dd_137_269" x="1231.51" y="203.259" width="197.095" height="169.693" filterUnits="userSpaceOnUse" color-interpolation-filters="sRGB">
<feFlood flood-opacity="0" result="BackgroundImageFix"/>
<feColorMatrix in="SourceAlpha" type="matrix" values="0 0 0 0 0 0 0 0 0 0 0 0 0 0 0 0 0 0 127 0" result="hardAlpha"/>
<feMorphology radius="3" operator="erode" in="SourceAlpha" result="effect1_dropShadow_137_269"/>
<feOffset dy="7"/>
<feGaussianBlur stdDeviation="6.5"/>
<feColorMatrix type="matrix" values="0 0 0 0 0 0 0 0 0 0 0 0 0 0 0 0 0 0 0.3 0"/>
<feBlend mode="normal" in2="BackgroundImageFix" result="effect1_dropShadow_137_269"/>
<feColorMatrix in="SourceAlpha" type="matrix" values="0 0 0 0 0 0 0 0 0 0 0 0 0 0 0 0 0 0 127 0" result="hardAlpha"/>
<feOffset dy="2"/>
<feGaussianBlur stdDeviation="2"/>
<feColorMatrix type="matrix" values="0 0 0 0 0 0 0 0 0 0 0 0 0 0 0 0 0 0 0.4 0"/>
<feBlend mode="normal" in2="effect1_dropShadow_137_269" result="effect2_dropShadow_137_269"/>
<feBlend mode="normal" in="SourceGraphic" in2="effect2_dropShadow_137_269" result="shape"/>
</filter>
<filter id="filter1_dd_137_269" x="1231.51" y="652.337" width="197.095" height="169.693" filterUnits="userSpaceOnUse" color-interpolation-filters="sRGB">
<feFlood flood-opacity="0" result="BackgroundImageFix"/>
<feColorMatrix in="SourceAlpha" type="matrix" values="0 0 0 0 0 0 0 0 0 0 0 0 0 0 0 0 0 0 127 0" result="hardAlpha"/>
<feMorphology radius="3" operator="erode" in="SourceAlpha" result="effect1_dropShadow_137_269"/>
<feOffset dy="7"/>
<feGaussianBlur stdDeviation="6.5"/>
<feColorMatrix type="matrix" values="0 0 0 0 0 0 0 0 0 0 0 0 0 0 0 0 0 0 0.3 0"/>
<feBlend mode="normal" in2="BackgroundImageFix" result="effect1_dropShadow_137_269"/>
<feColorMatrix in="SourceAlpha" type="matrix" values="0 0 0 0 0 0 0 0 0 0 0 0 0 0 0 0 0 0 127 0" result="hardAlpha"/>
<feOffset dy="2"/>
<feGaussianBlur stdDeviation="2"/>
<feColorMatrix type="matrix" values="0 0 0 0 0 0 0 0 0 0 0 0 0 0 0 0 0 0 0.4 0"/>
<feBlend mode="normal" in2="effect1_dropShadow_137_269" result="effect2_dropShadow_137_269"/>
<feBlend mode="normal" in="SourceGraphic" in2="effect2_dropShadow_137_269" result="shape"/>
</filter>
<radialGradient id="paint0_radial_137_269" cx="0" cy="0" r="1" gradientUnits="userSpaceOnUse" gradientTransform="translate(624.783 808.587) rotate(90.8371) scale(106.106 227.672)">
<stop stop-color="white" stop-opacity="0.8"/>
<stop offset="1" stop-color="#05041F"/>
</radialGradient>
<radialGradient id="paint1_radial_137_269" cx="0" cy="0" r="1" gradientUnits="userSpaceOnUse" gradientTransform="translate(1331.27 358.002) rotate(90) scale(112.644 241.715)">
<stop stop-color="white" stop-opacity="0.8"/>
<stop offset="1" stop-color="#05041F"/>
</radialGradient>
<radialGradient id="paint2_radial_137_269" cx="0" cy="0" r="1" gradientUnits="userSpaceOnUse" gradientTransform="translate(1153.18 1251.31) rotate(92.4491) scale(108.813 233.374)">
<stop stop-color="white" stop-opacity="0.8"/>
<stop offset="1" stop-color="#05041F"/>
</radialGradient>
<radialGradient id="paint3_radial_137_269" cx="0" cy="0" r="1" gradientUnits="userSpaceOnUse" gradientTransform="translate(1865.99 956.593) rotate(90.8369) scale(106.106 227.672)">
<stop stop-color="white" stop-opacity="0.8"/>
<stop offset="1" stop-color="#05041F"/>
</radialGradient>
<radialGradient id="paint4_radial_137_269" cx="0" cy="0" r="1" gradientUnits="userSpaceOnUse" gradientTransform="translate(1331.54 731.12) rotate(90) scale(795.054 940.593)">
<stop stop-color="white"/>
<stop offset="1" stop-color="white" stop-opacity="0"/>
</radialGradient>
</defs>
</svg>
