<svg width="512" height="512" viewBox="0 0 512 512" fill="none" xmlns="http://www.w3.org/2000/svg">
<rect width="512" height="512" fill="#1B1B1B"/>
<path d="M350.075 301.3C339.45 295.15 326.5 296.8 317.775 304.5L304.525 296.825V258.9C304.525 254.975 302.425 251.325 299.025 249.375L265.025 229.8V213.025C276.075 209.275 284.025 198.825 284.025 186.5C284.025 171.025 271.5 158.5 256.025 158.5C240.55 158.5 228.025 171.025 228.025 186.5C228.025 198.825 235.975 209.275 247.025 213.025V229.8L213.025 249.375C209.625 251.325 207.525 254.975 207.525 258.9V296.8L194.275 304.475C185.55 296.775 172.575 295.125 161.975 301.275C148.6 309.025 144.05 326.125 151.725 339.5C159.425 352.875 176.45 357.475 189.775 349.75C200.4 343.6 205.45 331.5 203.175 320.05L215.35 312.975L250.5 333.225C252.2 334.2 254.1 334.7 256 334.7C257.9 334.7 259.8 334.2 261.5 333.225L296.625 313L308.8 320.075C306.525 331.5 311.6 343.625 322.2 349.775C335.525 357.5 352.575 352.925 360.25 339.525C367.95 326.125 363.4 309.025 350.075 301.3ZM181.825 335.9C180.467 336.686 178.967 337.197 177.411 337.401C175.856 337.606 174.275 337.5 172.76 337.091C171.245 336.682 169.826 335.978 168.584 335.018C167.342 334.059 166.303 332.863 165.525 331.5C162.225 325.775 164.175 318.425 169.9 315.125C171.258 314.339 172.758 313.828 174.314 313.624C175.87 313.419 177.451 313.525 178.966 313.934C180.481 314.343 181.9 315.047 183.141 316.007C184.383 316.966 185.422 318.162 186.2 319.525C189.5 325.25 187.55 332.6 181.825 335.9ZM244 186.5C244.064 183.36 245.357 180.37 247.6 178.172C249.844 175.974 252.859 174.742 256 174.742C259.141 174.742 262.157 175.974 264.4 178.172C266.644 180.37 267.936 183.36 268 186.5C267.936 189.64 266.644 192.63 264.4 194.828C262.157 197.026 259.141 198.258 256 198.258C252.859 198.258 249.844 197.026 247.6 194.828C245.357 192.63 244.064 189.64 244 186.5ZM286.5 298.05L256 315.625L225.5 298.05V262.95L256 245.375L286.5 262.95V298.05ZM346.475 331.525C343.175 337.25 335.875 339.225 330.175 335.925C324.475 332.625 322.5 325.275 325.8 319.55C329.1 313.825 336.4 311.85 342.1 315.15C347.825 318.45 349.775 325.775 346.475 331.525Z" fill="#CECECE"/>
</svg>
