<svg width="702" height="501" viewBox="0 0 702 501" fill="none" xmlns="http://www.w3.org/2000/svg">
<rect width="702" height="501" fill="#1B1B1B"/>
<g clip-path="url(#clip0_502_775)">
<path d="M424.547 167.676C410.437 140.134 382.307 122.5 351 122.5C319.693 122.5 291.578 140.119 277.453 167.676H223V363.441H479V167.676H424.547ZM351 137.559C373.92 137.559 394.776 149.109 407.2 167.676H294.8C307.239 149.124 328.08 137.559 351 137.559ZM463.941 348.382H238.059V182.735H463.941V348.382ZM343.471 273.088H313.353V258.029H343.471V227.912H358.529V258.029H388.647V273.088H358.529V303.206H343.471V273.088Z" fill="#CECECE"/>
</g>
<defs>
<clipPath id="clip0_502_775">
<rect width="256" height="256" fill="white" transform="translate(223 122.5)"/>
</clipPath>
</defs>
</svg>
