<svg width="512" height="512" viewBox="0 0 512 512" fill="none" xmlns="http://www.w3.org/2000/svg">
<rect width="512" height="512" fill="#1B1B1B"/>
<path d="M153.6 192C153.6 177.88 165.08 166.4 179.2 166.4H332.8C346.92 166.4 358.4 177.88 358.4 192V294.4H332.8V192H179.2V294.4H153.6V192ZM128 314.88C128 310.64 131.44 307.2 135.68 307.2H376.32C380.56 307.2 384 310.64 384 314.88C384 331.84 370.24 345.6 353.28 345.6H158.72C141.76 345.6 128 331.84 128 314.88ZM240.4 237.2L228 249.6L240.4 262C244.16 265.76 244.16 271.84 240.4 275.56C236.64 279.28 230.56 279.32 226.84 275.56L207.64 256.36C203.88 252.6 203.88 246.52 207.64 242.8L226.84 223.6C230.6 219.84 236.68 219.84 240.4 223.6C244.12 227.36 244.16 233.44 240.4 237.16V237.2ZM285.2 223.6L304.4 242.8C308.16 246.56 308.16 252.64 304.4 256.36L285.2 275.56C281.44 279.32 275.36 279.32 271.64 275.56C267.92 271.8 267.88 265.72 271.64 262L284.04 249.6L271.64 237.2C267.88 233.44 267.88 227.36 271.64 223.64C275.4 219.92 281.48 219.88 285.2 223.64V223.6Z" fill="#CECECE"/>
</svg>
