<svg width="702" height="501" viewBox="0 0 702 501" fill="none" xmlns="http://www.w3.org/2000/svg">
<rect width="702" height="501" fill="#1B1B1B"/>
<g clip-path="url(#clip0_502_763)">
<path d="M231.043 224.687C229.983 224.687 228.934 224.896 227.955 225.303C226.977 225.71 226.088 226.306 225.341 227.057C224.593 227.809 224.002 228.7 223.6 229.681C223.198 230.662 222.994 231.712 223 232.772V259.705C223 264.185 226.616 267.791 231.085 267.791H264.525L279.789 276.313L276.312 267.791H301.624C302.686 267.792 303.738 267.584 304.72 267.178C305.701 266.772 306.593 266.177 307.344 265.426C308.096 264.675 308.691 263.783 309.097 262.801C309.503 261.82 309.711 260.767 309.709 259.705V232.772C309.711 231.71 309.503 230.658 309.097 229.676C308.691 228.695 308.096 227.803 307.344 227.052C306.593 226.301 305.701 225.705 304.72 225.299C303.738 224.893 302.686 224.685 301.624 224.687H231.043ZM259.939 229.433H260.259C260.952 229.444 261.581 229.679 262.168 230.148C262.486 230.387 262.748 230.692 262.938 231.042C263.128 231.391 263.24 231.778 263.267 232.175C263.315 232.766 263.193 233.358 262.915 233.881C261.528 236.431 260.397 240.708 259.48 246.671C258.595 252.441 258.264 256.964 258.477 260.185C258.567 260.988 258.423 261.799 258.061 262.521C257.888 262.881 257.624 263.188 257.294 263.413C256.965 263.638 256.582 263.772 256.184 263.801C255.267 263.865 254.296 263.439 253.379 262.479C250.072 259.108 247.459 254.073 245.539 247.375C243.235 251.908 241.539 255.311 240.44 257.583C238.349 261.593 236.568 263.641 235.085 263.748C234.125 263.823 233.315 263.012 232.6 261.316C230.787 256.665 228.845 247.695 226.755 234.393C226.69 233.98 226.707 233.558 226.806 233.152C226.905 232.745 227.083 232.362 227.331 232.025C227.832 231.343 228.568 231.012 229.571 230.937C231.373 230.799 232.397 231.631 232.643 233.476C233.741 240.889 234.957 247.172 236.227 252.313L243.981 237.519C244.685 236.175 245.581 235.471 246.648 235.396C248.205 235.289 249.176 236.281 249.56 238.383C250.445 243.087 251.565 247.097 252.92 250.5C253.837 241.497 255.405 235.001 257.613 231.001C257.822 230.553 258.149 230.171 258.558 229.895C258.968 229.618 259.445 229.459 259.939 229.433ZM273.731 233.273C274.328 233.273 274.968 233.337 275.651 233.487C278.125 234.02 280.035 235.375 281.304 237.604C282.445 239.524 283.021 241.817 283.021 244.58C283.021 248.239 282.093 251.556 280.248 254.607C278.115 258.148 275.352 259.94 271.917 259.94C271.271 259.928 270.628 259.849 269.997 259.705C268.808 259.486 267.683 259.005 266.703 258.296C265.724 257.588 264.914 256.67 264.333 255.609C263.154 253.459 262.572 251.032 262.648 248.58C262.648 244.932 263.555 241.593 265.4 238.585C267.555 235.033 270.339 233.273 273.731 233.273ZM295.96 233.273C296.557 233.273 297.197 233.337 297.88 233.487C300.397 234.02 302.264 235.375 303.533 237.604C304.675 239.524 305.24 241.817 305.24 244.58C305.24 248.239 304.323 251.556 302.477 254.607C300.344 258.148 297.581 259.94 294.147 259.94C293.5 259.928 292.857 259.849 292.227 259.705C291.038 259.486 289.912 259.005 288.933 258.296C287.953 257.588 287.143 256.67 286.563 255.609C285.376 253.461 284.786 251.034 284.856 248.58C284.856 244.932 285.784 241.593 287.629 238.585C289.784 235.033 292.568 233.273 295.96 233.273ZM343.288 233.775C340.035 233.775 337.464 234.863 335.629 237.017C333.784 239.183 332.899 242.244 332.899 246.148C332.899 250.361 333.816 253.583 335.629 255.812C337.443 258.052 340.088 259.183 343.565 259.183C346.925 259.183 349.528 258.041 351.331 255.812C353.144 253.572 354.061 250.436 354.061 246.393C354.061 242.351 353.133 239.215 351.288 237.017C349.411 234.863 346.765 233.775 343.288 233.775ZM327.651 233.796C325.999 233.73 324.351 234.005 322.809 234.603C321.268 235.201 319.866 236.11 318.691 237.273C316.312 239.62 315.149 242.596 315.149 246.212C315.149 250.073 316.301 253.231 318.648 255.599C320.995 257.977 324.035 259.183 327.832 259.183C328.931 259.183 330.179 259.012 331.523 258.628V252.868C330.275 253.231 329.219 253.412 328.291 253.412C327.448 253.442 326.61 253.289 325.832 252.963C325.055 252.637 324.358 252.146 323.789 251.524C322.659 250.244 322.083 248.559 322.083 246.404C322.083 244.377 322.648 242.692 323.747 241.412C324.26 240.79 324.908 240.293 325.641 239.958C326.375 239.624 327.175 239.461 327.981 239.481C329.08 239.481 330.243 239.641 331.523 240.004V234.276C330.259 233.947 328.957 233.785 327.651 233.796ZM460.067 233.796C458.415 233.733 456.768 234.009 455.227 234.607C453.686 235.205 452.284 236.113 451.107 237.273C448.728 239.62 447.565 242.596 447.565 246.212C447.565 250.073 448.717 253.231 451.064 255.599C453.411 257.977 456.461 259.183 460.248 259.183C461.347 259.183 462.595 259.012 463.939 258.628V252.868C462.701 253.231 461.635 253.412 460.707 253.412C459.864 253.442 459.026 253.289 458.248 252.963C457.471 252.637 456.774 252.146 456.205 251.524C455.075 250.244 454.499 248.559 454.499 246.404C454.499 244.377 455.064 242.692 456.163 241.412C456.676 240.79 457.324 240.293 458.057 239.958C458.791 239.624 459.591 239.461 460.397 239.481C461.496 239.481 462.659 239.641 463.939 240.004V234.276C462.675 233.947 461.373 233.785 460.067 233.796ZM357.688 234.436L354.595 258.585H360.771L362.435 241.956L366.648 258.585H371.043L375.085 241.999L376.835 258.585H383.267L380.024 234.436H371.587L370.307 239.855C369.987 241.241 369.667 242.671 369.379 244.121L368.664 247.876C367.843 243.377 366.925 238.896 365.912 234.436H357.688ZM387.213 234.436L384.12 258.585H390.296L391.96 241.956L396.184 258.585H400.579L404.579 241.999L406.339 258.585H412.771L409.517 234.436H401.101L399.832 239.855C399.512 241.241 399.192 242.671 398.915 244.121L398.211 247.876C397.539 244.121 396.611 239.652 395.437 234.436H387.213ZM429.752 234.436V258.585H436.269V247.588H436.397L441.667 258.575H448.547L443.331 247.705C444.487 247.21 445.476 246.391 446.176 245.346C446.877 244.301 447.259 243.075 447.277 241.817C447.312 240.768 447.086 239.726 446.621 238.784C446.156 237.843 445.465 237.031 444.611 236.42C442.829 235.108 440.408 234.436 437.357 234.436H429.752ZM465.773 234.436V258.585H479V253.433H472.28V249.017H478.04V244.025H472.28V239.588H478.957V234.436H465.773ZM414.648 234.479V258.628H427.875V253.476H421.187V249.039H426.957V244.047H421.197V239.62H427.832V234.479H414.648ZM436.248 239.087C437.805 239.119 438.915 239.353 439.587 239.855C440.259 240.345 440.557 241.135 440.557 242.276C440.557 243.94 439.117 244.793 436.248 244.836V239.076V239.087ZM273.901 239.204C272.792 239.204 271.715 239.94 270.691 241.455C269.274 243.443 268.527 245.83 268.557 248.271C268.557 249.295 268.771 250.404 269.197 251.503C269.72 252.889 270.445 253.615 271.288 253.796C272.173 253.967 273.133 253.583 274.168 252.665C275.48 251.492 276.355 249.753 276.856 247.417C277.027 246.596 277.101 245.711 277.101 244.793C277.101 243.759 276.888 242.66 276.461 241.561C275.928 240.175 275.224 239.449 274.371 239.268C274.213 239.232 274.063 239.21 273.901 239.204ZM296.12 239.204C295.021 239.204 293.944 239.94 292.92 241.455C291.504 243.443 290.756 245.83 290.787 248.271C290.787 249.295 291 250.404 291.427 251.503C291.949 252.889 292.675 253.615 293.517 253.796C294.403 253.967 295.363 253.583 296.397 252.665C297.709 251.492 298.584 249.753 299.085 247.417C299.224 246.596 299.331 245.711 299.331 244.793C299.331 243.759 299.117 242.66 298.691 241.561C298.157 240.175 297.453 239.449 296.6 239.268C296.442 239.232 296.282 239.21 296.12 239.204ZM343.352 239.268C345.837 239.268 347.128 241.593 347.128 246.308C347.085 249.22 346.723 251.215 346.083 252.207C345.791 252.68 345.378 253.067 344.887 253.328C344.396 253.588 343.844 253.713 343.288 253.689C342.763 253.706 342.243 253.575 341.787 253.314C341.332 253.052 340.957 252.669 340.707 252.207C340.109 251.215 339.811 249.22 339.811 246.212C339.811 241.561 340.984 239.279 343.352 239.279V239.268Z" fill="#CECECE"/>
</g>
<defs>
<clipPath id="clip0_502_763">
<rect width="256" height="256" fill="white" transform="translate(223 122.5)"/>
</clipPath>
</defs>
</svg>
