<svg width="702" height="501" viewBox="0 0 702 501" fill="none" xmlns="http://www.w3.org/2000/svg">
<rect width="702" height="501" fill="#1B1B1B"/>
<path d="M435.171 205.397C442.883 219.558 446.915 235.442 446.893 251.582C446.898 268.428 442.496 284.981 434.129 299.584C425.761 314.188 413.722 326.329 399.213 334.796L428.504 249.783C433.976 236.054 435.8 225.057 435.8 215.312C435.804 211.997 435.594 208.685 435.171 205.397ZM364.227 206.328C367.885 206.148 371.535 205.833 375.171 205.386C380.344 204.711 379.736 197.087 374.573 197.365C374.573 197.365 358.968 198.565 348.973 198.565C339.512 198.565 323.64 197.226 323.64 197.226C318.445 196.969 317.773 204.861 322.989 205.129C322.989 205.129 327.779 205.686 332.995 205.932L347.917 247.031L326.851 310.199L291.928 206.071C295.591 205.886 299.248 205.59 302.893 205.182C308.088 204.508 307.48 196.883 302.307 197.183C302.307 197.183 286.787 198.415 276.76 198.415C274.979 198.415 272.867 198.34 270.627 198.275C287.992 172.608 317.528 155.335 351 155.335C375.971 155.335 398.691 164.908 415.757 180.607C415.352 180.585 414.947 180.521 414.509 180.521C405.091 180.521 398.403 188.766 398.403 197.612C398.403 205.546 402.957 212.271 407.821 220.185C411.48 226.62 415.736 234.855 415.736 246.752C415.736 254.923 412.589 264.549 408.429 277.796L398.872 309.781L364.205 206.178L364.227 206.328ZM351 347.807C341.83 347.816 332.706 346.503 323.907 343.909L352.675 259.977L382.147 341.06C382.371 341.532 382.595 341.971 382.84 342.388C372.608 345.99 361.843 347.83 351 347.828M255.107 251.582C255.091 238.083 257.919 224.734 263.405 212.41L309.133 338.223C292.936 330.327 279.279 318.014 269.724 302.692C260.17 287.37 255.104 269.658 255.107 251.582ZM351 144.498C292.195 144.498 244.333 192.547 244.333 251.582C244.333 310.617 292.195 358.665 351 358.665C409.805 358.665 457.667 310.617 457.667 251.582C457.667 192.547 409.805 144.498 351 144.498Z" fill="#CECECE"/>
</svg>
