<svg width="24" height="24" viewBox="0 0 24 24" fill="none" xmlns="http://www.w3.org/2000/svg">
<g clip-path="url(#clip0_507_789)">
<path d="M12.0007 0.835449C7.185 0.835449 3.1875 5.78404 3.1875 11.9992C3.1875 14.6113 3.89437 16.9998 5.07047 18.8914C7.04077 19.7348 9.55275 20.1849 12.0708 20.1872C14.5002 20.1894 16.9266 19.7754 18.8695 18.9878C20.0817 17.0812 20.8125 14.6559 20.8125 11.9991C20.8125 5.78395 16.8164 0.835543 12.0008 0.835449H12.0007ZM12.0826 1.71201C15.8572 1.71201 18.909 4.76226 18.909 8.53701C18.909 12.3117 15.8572 15.3634 12.0826 15.3634C8.30775 15.3634 5.25759 12.3117 5.25759 8.53701C5.25759 4.76217 8.30775 1.71201 12.0826 1.71201ZM10.7846 3.58795C10.6634 3.85861 10.546 4.11726 10.4321 4.37747C10.4067 4.43573 10.3762 4.44956 10.3092 4.45415C10.0544 4.47182 9.79945 4.49761 9.5475 4.53853C9.46453 4.55212 9.42141 4.54837 9.37298 4.47787C9.21666 4.24978 9.05316 4.02665 8.88773 3.79514L7.84069 4.56089C8.01778 4.80951 8.18278 5.04661 8.35453 5.27878C8.40028 5.34056 8.39419 5.38096 8.35931 5.44598C8.27742 5.5987 8.20613 5.75756 8.139 5.91745C8.09986 6.01045 8.10506 6.14704 8.03934 6.19715C7.96622 6.25293 7.8352 6.23343 7.72927 6.24567C7.50675 6.27136 7.28395 6.29629 7.05225 6.32254L7.18008 7.61282C7.50525 7.57626 7.81148 7.53923 8.11838 7.50993C8.17294 7.50478 8.25525 7.51256 8.28258 7.54743C8.43548 7.74243 8.57545 7.94751 8.73267 8.16712L8.28844 9.16368L9.46298 9.68943C9.60628 9.37012 9.74592 9.06482 9.8797 8.7569C9.91055 8.68575 9.94467 8.66151 10.027 8.66015C10.216 8.65706 10.4072 8.64689 10.5925 8.61234C10.7 8.59237 10.7547 8.6115 10.8155 8.69878C11.0029 8.96784 11.1998 9.2302 11.3961 9.49921L12.15 8.94975L12.4095 9.39918L11.4727 10.3372L10.3276 9.67931L9.71662 10.7909C10.1051 11.0171 10.4799 11.2353 10.8213 11.4342C10.7205 11.86 10.6268 12.263 10.5265 12.6644C10.5192 12.6932 10.4632 12.7286 10.4294 12.7292C10.1206 12.7341 9.81155 12.7321 9.50264 12.7321H9.19397V13.9712C9.22538 13.9861 9.25702 14.0007 9.28866 14.0151H10.5115C10.5466 14.1638 10.5807 14.306 10.6138 14.4464C11.0303 14.5325 11.4626 14.5781 11.9062 14.5781C12.6518 14.5781 13.3658 14.4502 14.0267 14.2161C13.6393 13.5893 13.733 12.7868 14.1728 12.2861C14.7955 11.5769 15.8866 11.5279 16.5538 12.1908C16.6085 12.2452 16.6584 12.3017 16.7043 12.36C17.5733 11.3217 18.0938 9.99543 18.0938 8.55051C18.0938 8.2612 18.0725 7.97676 18.0322 7.69832C18.0211 7.6927 18.0121 7.68801 18 7.68192C17.9938 7.67873 17.9855 7.67971 17.9689 7.6777C17.7539 8.05082 17.5372 8.42704 17.3333 8.78114L16.0427 8.42648V7.15101H14.7621V8.42789C14.3391 8.54226 13.9326 8.65228 13.5131 8.76567C13.3095 8.41176 13.096 8.04042 12.8817 7.66757L12.027 8.14734C11.9656 8.06179 11.9134 7.98271 11.8543 7.90889C11.8156 7.86061 11.8239 7.82803 11.853 7.77482C11.9551 7.58826 12.0572 7.4002 12.1371 7.20365C12.1748 7.11046 12.2164 7.08028 12.3119 7.07193C12.6144 7.04582 12.9159 7.00818 13.2314 6.9734C13.1883 6.53653 13.1461 6.11104 13.1039 5.68331C12.7854 5.71387 12.4898 5.7405 12.1947 5.7719C12.1249 5.77926 12.0963 5.75371 12.0593 5.69409C11.9287 5.48339 11.7928 5.27484 11.6426 5.07797C11.5883 5.00681 11.5758 4.96265 11.6131 4.88353C11.732 4.63101 11.8428 4.37475 11.9596 4.113C11.5635 3.93609 11.1786 3.76401 10.7846 3.588L10.7846 3.58795ZM10.1539 5.59631C10.7321 5.60109 11.1943 6.06848 11.1895 6.64336C11.1846 7.22615 10.7145 7.68586 10.1303 7.67896C9.54787 7.67217 9.09689 7.20459 9.10341 6.61396C9.10969 6.04743 9.58031 5.59143 10.1539 5.59631H10.1539ZM8.03597 15.6571C8.89448 15.6571 9.58594 16.3508 9.58594 17.2232C9.58594 18.0954 8.89453 18.7905 8.03606 18.7905C7.17755 18.7905 6.4875 18.0954 6.4875 17.2232C6.4875 16.3508 7.1775 15.6571 8.03597 15.6571ZM15.786 15.6914C16.1963 15.6914 16.5897 15.8544 16.8798 16.1445C17.1699 16.4346 17.3329 16.828 17.3329 17.2383C17.3329 17.6485 17.1699 18.042 16.8798 18.3321C16.5897 18.6222 16.1963 18.7852 15.786 18.7852C15.3757 18.7852 14.9823 18.6222 14.6922 18.3321C14.4021 18.042 14.2391 17.6485 14.2391 17.2383C14.2391 16.828 14.4021 16.4346 14.6922 16.1445C14.9823 15.8544 15.3757 15.6914 15.786 15.6914ZM6.01856 20.1915V20.1918C6.0187 20.1918 6.0188 20.1918 6.01894 20.1919L6.01856 20.1915ZM6.01894 20.1919C6.55725 20.822 7.15753 21.3672 7.80525 21.8131L7.47356 20.5801C6.97444 20.4703 6.48858 20.3405 6.01894 20.1919ZM17.92 20.2631C17.5043 20.3883 17.0766 20.4982 16.6389 20.5934L16.338 21.7139C16.9071 21.305 17.4377 20.8176 17.92 20.2634V20.2632V20.2631ZM8.42906 20.7656L8.87742 22.4384C9.40758 22.6939 9.96117 22.886 10.5326 23.0082L10.296 20.9923C9.66445 20.9453 9.03984 20.8683 8.42902 20.7655L8.42906 20.7656ZM15.685 20.7774C15.2104 20.8555 14.7265 20.9172 14.2389 20.963L14.0138 22.8709C14.4408 22.7434 14.8557 22.576 15.257 22.3726L15.6851 20.7776V20.7775L15.685 20.7774H15.685ZM13.352 21.0257L13.3518 21.0271H13.3521L13.352 21.0257ZM13.3518 21.0271C12.9262 21.0506 12.4984 21.0624 12.071 21.0624C11.7736 21.0622 11.4763 21.0565 11.1798 21.0447L11.4281 23.141C11.6175 23.1586 11.8083 23.1645 12.0007 23.1645C12.3758 23.1645 12.7455 23.1352 13.1094 23.0752L13.3517 21.0272L13.3518 21.0271Z" fill="#CECECE"/>
</g>
<defs>
<clipPath id="clip0_507_789">
<rect width="24" height="24" fill="white"/>
</clipPath>
</defs>
</svg>
