<svg width="24" height="24" viewBox="0 0 24 24" fill="none" xmlns="http://www.w3.org/2000/svg">
<g clip-path="url(#clip0_383_820)">
<path d="M21.5085 3.48748L20.5148 2.49373C20.4773 2.45623 20.4304 2.43982 20.3812 2.43982C20.332 2.43982 20.2851 2.45857 20.2476 2.49373L18.464 4.27732C17.6886 3.75197 16.7732 3.47188 15.8366 3.47341C14.6366 3.47341 13.4366 3.93044 12.5202 4.84685L10.132 7.23513C10.0971 7.27037 10.0775 7.31796 10.0775 7.36755C10.0775 7.41715 10.0971 7.46474 10.132 7.49998L16.4999 13.8679C16.5374 13.9054 16.5843 13.9219 16.6335 13.9219C16.6804 13.9219 16.7296 13.9031 16.7671 13.8679L19.1554 11.4797C20.7702 9.86248 20.9601 7.36169 19.7249 5.53826L21.5085 3.75466C21.5812 3.67966 21.5812 3.56013 21.5085 3.48748ZM18.0257 10.3523L16.6335 11.7445L12.2554 7.36638L13.6476 5.97419C14.2312 5.3906 15.0093 5.06716 15.8366 5.06716C16.664 5.06716 17.4398 5.38826 18.0257 5.97419C18.6093 6.55779 18.9327 7.33591 18.9327 8.16326C18.9327 8.9906 18.6093 9.76638 18.0257 10.3523ZM13.5679 12.8133C13.5327 12.7784 13.4851 12.7588 13.4355 12.7588C13.3859 12.7588 13.3383 12.7784 13.3031 12.8133L11.7421 14.3742L9.62571 12.2578L11.189 10.6945C11.2616 10.6219 11.2616 10.5023 11.189 10.4297L10.3359 9.57654C10.3006 9.54164 10.253 9.52207 10.2034 9.52207C10.1539 9.52207 10.1063 9.54164 10.071 9.57654L8.50774 11.1398L7.49993 10.132C7.48243 10.1145 7.46158 10.1007 7.43863 10.0914C7.41567 10.0822 7.39108 10.0776 7.36633 10.0781C7.31946 10.0781 7.27024 10.0969 7.23274 10.132L4.8468 12.5203C3.23196 14.1375 3.04212 16.6383 4.27727 18.4617L2.49368 20.2453C2.45878 20.2805 2.43921 20.3281 2.43921 20.3777C2.43921 20.4273 2.45878 20.4749 2.49368 20.5101L3.48743 21.5039C3.52493 21.5414 3.5718 21.5578 3.62102 21.5578C3.67024 21.5578 3.71712 21.539 3.75462 21.5039L5.53821 19.7203C6.32805 20.257 7.2468 20.5242 8.16555 20.5242C9.36555 20.5242 10.5656 20.0672 11.482 19.1508L13.8702 16.7625C13.9429 16.6898 13.9429 16.5703 13.8702 16.4976L12.8624 15.4898L14.4257 13.9265C14.4984 13.8539 14.4984 13.7344 14.4257 13.6617L13.5679 12.8133ZM10.3523 18.0258C10.0654 18.3141 9.72426 18.5427 9.34853 18.6984C8.97279 18.8541 8.56992 18.9337 8.16321 18.9328C7.33587 18.9328 6.56008 18.6117 5.97415 18.0258C5.68582 17.7389 5.45721 17.3977 5.30153 17.022C5.14584 16.6463 5.06617 16.2434 5.06712 15.8367C5.06712 15.0094 5.38821 14.2336 5.97415 13.6476L7.36633 12.2554L11.7445 16.6336L10.3523 18.0258Z" fill="#CECECE"/>
</g>
<defs>
<clipPath id="clip0_383_820">
<rect width="24" height="24" fill="white"/>
</clipPath>
</defs>
</svg>
