<svg width="32" height="33" viewBox="0 0 32 33" fill="none" xmlns="http://www.w3.org/2000/svg">
<path d="M14.4001 16.6833L19.6001 21.8833C19.8445 22.1278 19.9667 22.4389 19.9667 22.8167C19.9667 23.1944 19.8445 23.5056 19.6001 23.75C19.3556 23.9944 19.0445 24.1167 18.6667 24.1167C18.289 24.1167 17.9778 23.9944 17.7334 23.75L11.6001 17.6167C11.4667 17.4833 11.3725 17.3389 11.3174 17.1833C11.2623 17.0278 11.2343 16.8611 11.2334 16.6833C11.2334 16.5056 11.2614 16.3389 11.3174 16.1833C11.3734 16.0278 11.4676 15.8833 11.6001 15.75L17.7334 9.61667C17.9778 9.37222 18.289 9.25 18.6667 9.25C19.0445 9.25 19.3556 9.37222 19.6001 9.61667C19.8445 9.86111 19.9667 10.1722 19.9667 10.55C19.9667 10.9278 19.8445 11.2389 19.6001 11.4833L14.4001 16.6833Z" fill="black"/>
</svg>
