<svg width="24" height="25" viewBox="0 0 24 25" fill="none" xmlns="http://www.w3.org/2000/svg">
<g clip-path="url(#clip0_420_638)">
<path fill-rule="evenodd" clip-rule="evenodd" d="M9.492 4.06982L8.90625 4.14032C8.90625 4.14032 6.27825 4.42757 4.359 5.96882H4.3365L4.3125 5.99132C3.882 6.38732 3.6945 6.87407 3.39825 7.58582C3.04904 8.44215 2.75175 9.31873 2.508 10.2108C1.9515 12.2231 1.5 14.6606 1.5 16.8903V17.0778L1.59375 17.2653C2.28825 18.4841 3.52125 19.2603 4.66425 19.7966C5.8065 20.3328 6.79425 20.6171 7.47675 20.6403L7.92225 20.6636L8.15625 20.2653L8.97675 18.8118C9.84675 19.0083 10.8488 19.1403 12 19.1403C13.1512 19.1403 14.1532 19.0083 15.0233 18.8118L15.8438 20.2653L16.0785 20.6636L16.5233 20.6403C17.2058 20.6171 18.1935 20.3328 19.3358 19.7966C20.4788 19.2603 21.7118 18.4841 22.4062 17.2653L22.5 17.0778V16.8903C22.5 14.6606 22.0485 12.2231 21.492 10.2108C21.2483 9.31873 20.951 8.44215 20.6017 7.58582C20.3055 6.87332 20.118 6.38732 19.6875 5.99207L19.6642 5.96807H19.6403C17.7225 4.42757 15.0938 4.14032 15.0938 4.14032L14.508 4.06982L14.2965 4.60907C14.2965 4.60907 14.0798 5.15657 13.9455 5.78132C13.3007 5.69236 12.6509 5.64526 12 5.64032C11.5988 5.64032 10.905 5.66657 10.0545 5.78132C9.9195 5.15657 9.70275 4.60907 9.70275 4.60907L9.492 4.06982ZM8.46075 5.78132C8.493 5.88632 8.52525 5.97707 8.5545 6.06257C7.58475 6.30257 6.5505 6.66857 5.60175 7.25732L6.39825 8.52332C8.34375 7.31582 11.1383 7.14032 12 7.14032C12.861 7.14032 15.6562 7.31582 17.6017 8.52332L18.3983 7.25732C17.4495 6.66857 16.4152 6.30257 15.4455 6.06182C15.4747 5.97707 15.507 5.88632 15.5392 5.78057C16.239 5.92157 17.5755 6.24407 18.6795 7.11707C18.6735 7.12007 18.9608 7.55357 19.2188 8.17157C19.4827 8.80757 19.7752 9.65432 20.0392 10.6091C20.5462 12.4398 20.9445 14.6696 20.9767 16.6323C20.5042 17.3531 19.629 18.0033 18.7028 18.4376C18.1219 18.7121 17.5073 18.9088 16.875 19.0226L16.5 18.3903C16.7227 18.3078 16.9425 18.2178 17.133 18.1323C18.2873 17.6253 18.9142 17.0778 18.9142 17.0778L17.9295 15.9528C17.9295 15.9528 17.508 16.3398 16.5233 16.7733C15.54 17.2068 14.0363 17.6403 12 17.6403C9.96375 17.6403 8.46075 17.2068 7.47675 16.7733C6.492 16.3398 6.0705 15.9528 6.0705 15.9528L5.08575 17.0778C5.08575 17.0778 5.71275 17.6253 6.867 18.1323C7.07498 18.2255 7.28611 18.3116 7.5 18.3903L7.125 19.0233C6.49236 18.9091 5.87755 18.7119 5.2965 18.4368C4.371 18.0033 3.495 17.3531 3.024 16.6323C3.0555 14.6696 3.45375 12.4398 3.9615 10.6091C4.18586 9.78094 4.4596 8.96699 4.78125 8.17157C5.03925 7.55357 5.3265 7.12007 5.3205 7.11707C6.4245 6.24407 7.761 5.92157 8.46075 5.78132ZM9.375 10.8903C8.79525 10.8903 8.28225 11.2211 7.96875 11.6403C7.65525 12.0596 7.5 12.5748 7.5 13.1403C7.5 13.7058 7.65525 14.2211 7.96875 14.6403C8.28225 15.0596 8.79525 15.3903 9.375 15.3903C9.95475 15.3903 10.4677 15.0596 10.7812 14.6403C11.0948 14.2211 11.25 13.7058 11.25 13.1403C11.25 12.5748 11.0948 12.0596 10.7812 11.6403C10.4677 11.2211 9.95475 10.8903 9.375 10.8903ZM14.625 10.8903C14.0452 10.8903 13.5323 11.2211 13.2188 11.6403C12.9052 12.0596 12.75 12.5748 12.75 13.1403C12.75 13.7058 12.9052 14.2211 13.2188 14.6403C13.5323 15.0596 14.0452 15.3903 14.625 15.3903C15.2048 15.3903 15.7177 15.0596 16.0312 14.6403C16.3448 14.2211 16.5 13.7058 16.5 13.1403C16.5 12.5748 16.3448 12.0596 16.0312 11.6403C15.7177 11.2211 15.2048 10.8903 14.625 10.8903ZM9.375 12.3903C9.41625 12.3903 9.46875 12.4053 9.5625 12.5313C9.65625 12.6566 9.75 12.8763 9.75 13.1403C9.75 13.4043 9.65625 13.6241 9.5625 13.7501C9.46875 13.8753 9.41625 13.8903 9.375 13.8903C9.33375 13.8903 9.28125 13.8753 9.1875 13.7493C9.06347 13.5706 8.99796 13.3578 9 13.1403C9 12.8763 9.09375 12.6566 9.1875 12.5306C9.28125 12.4053 9.33375 12.3903 9.375 12.3903ZM14.625 12.3903C14.6663 12.3903 14.7188 12.4053 14.8125 12.5313C14.9062 12.6566 15 12.8763 15 13.1403C15 13.4043 14.9062 13.6241 14.8125 13.7501C14.7188 13.8753 14.6663 13.8903 14.625 13.8903C14.5837 13.8903 14.5312 13.8753 14.4375 13.7493C14.3135 13.5706 14.248 13.3578 14.25 13.1403C14.25 12.8763 14.3438 12.6566 14.4375 12.5306C14.5312 12.4053 14.5837 12.3903 14.625 12.3903Z" fill="#CECECE"/>
</g>
<defs>
<clipPath id="clip0_420_638">
<rect width="24" height="24" fill="white" transform="translate(0 0.366699)"/>
</clipPath>
</defs>
</svg>
