<svg width="24" height="24" viewBox="0 0 24 24" fill="none" xmlns="http://www.w3.org/2000/svg">
<g clip-path="url(#clip0_390_725)">
<path d="M12.1706 1.27187C11.9788 1.27538 11.796 1.35405 11.6616 1.49095C11.5272 1.62785 11.4519 1.81203 11.452 2.00387V15.9179C11.452 16.112 11.5291 16.2982 11.6664 16.4355C11.8036 16.5727 11.9898 16.6499 12.184 16.6499C12.3781 16.6498 12.5642 16.5727 12.7014 16.4354C12.8387 16.2981 12.9158 16.112 12.9158 15.9179V2.00397C12.9158 1.90672 12.8964 1.81044 12.8588 1.72076C12.8212 1.63108 12.7661 1.54979 12.6967 1.48164C12.6273 1.4135 12.5451 1.35986 12.4547 1.32385C12.3644 1.28785 12.2678 1.27012 12.1706 1.27187ZM23.2447 5.44037C23.1493 5.44321 23.0554 5.46461 22.9683 5.50337L16.686 8.30697C16.5574 8.36499 16.4483 8.45888 16.3717 8.57738C16.2952 8.69588 16.2545 8.83395 16.2545 8.97502C16.2545 9.11609 16.2952 9.25416 16.3717 9.37266C16.4483 9.49116 16.5574 9.58505 16.686 9.64307L22.9683 12.4565C23.0624 12.4988 23.1644 12.5208 23.2676 12.5213C23.4354 12.5213 23.5981 12.4637 23.7285 12.3581C23.8588 12.2525 23.949 12.1054 23.9838 11.9412C24.0187 11.7771 23.9961 11.606 23.9198 11.4565C23.8435 11.3071 23.7182 11.1884 23.5649 11.1203L18.7789 8.97597L23.5649 6.83937C23.7417 6.75979 23.8798 6.6135 23.9491 6.43243C24.0183 6.25136 24.0132 6.05024 23.9347 5.87297C23.8752 5.74077 23.778 5.62913 23.6552 5.55212C23.5324 5.47512 23.3896 5.4363 23.2447 5.44037ZM0.74567 10.4724C0.632801 10.4702 0.52096 10.4942 0.418902 10.5424C0.316843 10.5907 0.227335 10.6619 0.157383 10.7505C0.0874308 10.8391 0.0389323 10.9427 0.015683 11.0532C-0.00756617 11.1636 -0.00493529 11.278 0.0233698 11.3873C1.75937 18.0643 7.79817 22.7283 14.7056 22.7283C14.8997 22.7283 15.0859 22.6511 15.2232 22.5139C15.3604 22.3766 15.4376 22.1904 15.4376 21.9963C15.4376 21.8021 15.3604 21.6159 15.2232 21.4787C15.0859 21.3414 14.8997 21.2643 14.7056 21.2643C11.6724 21.2653 8.72456 20.2601 6.32391 18.4061C3.92326 16.5522 2.20544 13.9543 1.43957 11.0194C1.39935 10.865 1.30979 10.728 1.18452 10.6293C1.05926 10.5305 0.905149 10.4754 0.74567 10.4724Z" fill="#CECECE"/>
</g>
<defs>
<clipPath id="clip0_390_725">
<rect width="24" height="24" fill="white"/>
</clipPath>
</defs>
</svg>
