<svg width="24" height="24" viewBox="0 0 24 24" fill="none" xmlns="http://www.w3.org/2000/svg">
<path fill-rule="evenodd" clip-rule="evenodd" d="M9.75 4.125H5.98934V14.1004C5.98934 16.5686 5.1417 17.2578 3.66659 17.2578C2.97532 17.2578 2.3528 17.1394 1.86851 16.9732L1.47656 19.8934C2.16759 20.131 3.22805 20.2734 4.05764 20.2734C7.44448 20.2734 9.75 18.6834 9.75 14.1248V4.125ZM17.9412 3.75C14.303 3.75 12 5.81545 12 8.54552C12 10.8966 13.7735 12.3686 16.3522 13.3181C18.2173 13.9827 18.9545 14.5766 18.9545 15.5497C18.9545 16.618 18.1024 17.3066 16.4905 17.3066C14.9936 17.3066 13.6347 16.8071 12.7137 16.3088V16.3078L12 19.2756C12.8756 19.775 14.5106 20.2734 16.283 20.2734C20.5434 20.2734 22.5234 17.9942 22.5234 15.3116C22.5234 13.0324 21.257 11.5607 18.5171 10.5156C16.4905 9.70861 15.6387 9.25774 15.6387 8.23685C15.6387 7.42943 16.3757 6.69387 17.8957 6.69387C19.3918 6.69387 20.4206 7.19648 21.0201 7.50555L21.9186 4.50117C20.979 4.08893 19.7135 3.75 17.9412 3.75Z" fill="#CECECE"/>
</svg>
