<svg width="24" height="24" viewBox="0 0 24 24" fill="none" xmlns="http://www.w3.org/2000/svg">
<g clip-path="url(#clip0_493_104)">
<g clip-path="url(#clip1_493_104)">
<path d="M23.6439 5.42962C23.6402 5.41872 23.6358 5.40807 23.6308 5.39774C23.6241 5.37758 23.6158 5.35799 23.6059 5.33915C23.5983 5.32744 23.5899 5.31632 23.5806 5.30587C23.5703 5.29048 23.559 5.27576 23.5469 5.2618C23.5361 5.25149 23.5225 5.24305 23.5108 5.23368C23.4974 5.22217 23.4833 5.21152 23.4686 5.2018L18.9564 2.60399C18.8994 2.57108 18.8347 2.55375 18.7689 2.55375C18.7031 2.55375 18.6384 2.57108 18.5814 2.60399L14.0683 5.20321C14.0538 5.21302 14.04 5.22383 14.027 5.23555C14.0143 5.24414 14.002 5.25353 13.9905 5.26368C13.9782 5.27739 13.9669 5.29195 13.9567 5.30727C13.9488 5.31852 13.9384 5.32837 13.9314 5.34055C13.9219 5.35949 13.9138 5.37907 13.907 5.39915C13.9033 5.40993 13.8972 5.41977 13.8939 5.43102C13.8853 5.46281 13.8809 5.49559 13.8808 5.52852V10.4616L10.1205 12.6268V2.97383C10.1206 2.94073 10.1161 2.90778 10.1073 2.87587C10.1045 2.86462 10.098 2.85477 10.0942 2.84399C10.0877 2.82399 10.0795 2.80455 10.0698 2.78587C10.0633 2.77368 10.0525 2.76383 10.0445 2.75212C10.0342 2.73673 10.023 2.72201 10.0108 2.70805C9.99909 2.69805 9.98689 2.68866 9.97422 2.67993C9.96109 2.66853 9.94731 2.65789 9.93297 2.64805L5.41938 0.0502405C5.36237 0.0173273 5.2977 0 5.23188 0C5.16605 0 5.10138 0.0173273 5.04438 0.0502405L0.53172 2.64805C0.517069 2.65763 0.503269 2.66845 0.49047 2.6804C0.477543 2.68898 0.465174 2.69837 0.453439 2.70852C0.441315 2.72224 0.430193 2.73681 0.420158 2.75212C0.41172 2.76383 0.401408 2.77368 0.394376 2.78587C0.384771 2.80453 0.376773 2.82397 0.37047 2.84399C0.36535 2.85419 0.360812 2.86468 0.356876 2.8754C0.348253 2.9075 0.343841 2.94059 0.343751 2.97383V18.4285C0.343572 18.4945 0.360814 18.5594 0.393736 18.6166C0.426658 18.6738 0.474094 18.7213 0.531251 18.7543L9.55469 23.9499C9.57475 23.96 9.5956 23.9685 9.61703 23.9752C9.62688 23.979 9.63625 23.9846 9.64656 23.9874C9.70952 24.0043 9.7758 24.0043 9.83875 23.9874C9.84813 23.9851 9.8561 23.9799 9.86453 23.9771C9.88717 23.97 9.90913 23.9609 9.93016 23.9499L18.9564 18.7543C19.0136 18.7213 19.061 18.6738 19.0939 18.6166C19.1268 18.5594 19.1441 18.4945 19.1439 18.4285V13.4945L23.4677 11.0049C23.5252 10.9717 23.5728 10.9239 23.6058 10.8662C23.6387 10.8086 23.6558 10.7432 23.6552 10.6768V5.52758C23.6554 5.49459 23.6516 5.46169 23.6439 5.42962ZM5.23141 0.810084L8.99031 2.97337L5.23094 5.13805L1.4725 2.97383L5.23141 0.810084ZM9.36813 3.62258V13.0595L7.18703 14.3152L5.60781 15.2246V5.78915L7.78891 4.53337L9.36813 3.62258ZM9.36813 22.9716L1.09563 18.211V3.62446L2.67485 4.5329L4.85547 5.78915V15.8757C4.85642 15.8899 4.8583 15.904 4.8611 15.9179C4.86222 15.9365 4.86472 15.955 4.8686 15.9732C4.87336 15.9877 4.87932 16.0018 4.88641 16.0154C4.89163 16.0316 4.89821 16.0472 4.9061 16.0623C4.91476 16.075 4.92415 16.0872 4.93422 16.0988C4.9436 16.1127 4.95394 16.1258 4.96516 16.1382C4.97594 16.1485 4.98953 16.156 5.00125 16.1654C5.01405 16.1765 5.02751 16.1868 5.04156 16.1963L9.36297 18.6423L9.36813 22.9716ZM9.74313 17.9949L5.99031 15.8706L9.93203 13.6013L14.2567 11.1118L18.0128 13.2741L15.2566 14.8473L9.74313 17.9949ZM18.3925 18.2091L10.1195 22.974V18.647L16.247 15.1501L18.3925 13.9243V18.2091ZM18.3925 12.6249L16.8133 11.7188L14.6322 10.4631V6.17774L16.2114 7.08712L18.3925 8.34383V12.6249ZM18.7675 7.68993L15.0081 5.52571L18.7675 3.36196L22.5259 5.52524L18.7675 7.68993ZM19.1425 12.6249V8.34383L21.3283 7.08712L22.907 6.17774V10.4616L19.1425 12.6249Z" fill="#CECECE"/>
</g>
</g>
<defs>
<clipPath id="clip0_493_104">
<rect width="24" height="24" fill="white"/>
</clipPath>
<clipPath id="clip1_493_104">
<rect width="24" height="24" fill="white"/>
</clipPath>
</defs>
</svg>
