<svg width="24" height="25" viewBox="0 0 24 25" fill="none" xmlns="http://www.w3.org/2000/svg">
<g clip-path="url(#clip0_420_643)">
<path d="M20.625 2.9917H3.375C2.96016 2.9917 2.625 3.32686 2.625 3.7417V20.9917C2.625 21.4065 2.96016 21.7417 3.375 21.7417H20.625C21.0398 21.7417 21.375 21.4065 21.375 20.9917V3.7417C21.375 3.32686 21.0398 2.9917 20.625 2.9917ZM8.18672 18.969H5.40469V10.0206H8.18672V18.969ZM6.79688 8.79717C6.47795 8.79717 6.16619 8.7026 5.90102 8.52541C5.63584 8.34823 5.42917 8.09639 5.30712 7.80174C5.18507 7.5071 5.15314 7.18288 5.21536 6.87008C5.27758 6.55729 5.43115 6.26997 5.65667 6.04446C5.88218 5.81895 6.1695 5.66537 6.48229 5.60315C6.79509 5.54093 7.11931 5.57287 7.41395 5.69491C7.7086 5.81696 7.96044 6.02364 8.13762 6.28881C8.3148 6.55399 8.40937 6.86575 8.40937 7.18467C8.40703 8.07529 7.68516 8.79717 6.79688 8.79717ZM18.6023 18.969H15.8227V14.6167C15.8227 13.5784 15.8039 12.2448 14.3766 12.2448C12.9305 12.2448 12.7078 13.3745 12.7078 14.5417V18.969H9.93047V10.0206H12.5977V11.244H12.6352C13.0055 10.5409 13.9125 9.79795 15.2672 9.79795C18.0844 9.79795 18.6023 11.6519 18.6023 14.0612V18.969Z" fill="#CECECE"/>
</g>
<defs>
<clipPath id="clip0_420_643">
<rect width="24" height="24" fill="white" transform="translate(0 0.366699)"/>
</clipPath>
</defs>
</svg>
