<svg width="24" height="25" viewBox="0 0 24 25" fill="none" xmlns="http://www.w3.org/2000/svg">
<g clip-path="url(#clip0_420_628)">
<path d="M21.75 4.1167H2.25C1.83516 4.1167 1.5 4.45186 1.5 4.8667V19.8667C1.5 20.2815 1.83516 20.6167 2.25 20.6167H21.75C22.1648 20.6167 22.5 20.2815 22.5 19.8667V4.8667C22.5 4.45186 22.1648 4.1167 21.75 4.1167ZM20.8125 6.71357V18.9292H3.1875V6.71357L2.54063 6.20967L3.46172 5.02607L4.46484 5.80654H19.5375L20.5406 5.02607L21.4617 6.20967L20.8125 6.71357ZM19.5375 5.8042L12 11.6636L4.4625 5.8042L3.45938 5.02373L2.53828 6.20732L3.18516 6.71123L11.1914 12.9362C11.4217 13.1151 11.7049 13.2122 11.9965 13.2122C12.2881 13.2122 12.5713 13.1151 12.8016 12.9362L20.8125 6.71357L21.4594 6.20967L20.5383 5.02607L19.5375 5.8042Z" fill="#CECECE"/>
</g>
<defs>
<clipPath id="clip0_420_628">
<rect width="24" height="24" fill="white" transform="translate(0 0.366699)"/>
</clipPath>
</defs>
</svg>
