<svg width="24" height="24" viewBox="0 0 24 24" fill="none" xmlns="http://www.w3.org/2000/svg">
<path d="M12.0001 21.9849C11.7251 21.9849 11.4681 21.9109 11.2281 21.7829L8.78909 20.3349C8.42409 20.1319 8.60709 20.0579 8.71709 20.0209C9.21309 19.8559 9.30509 19.8199 9.81809 19.5279C9.87409 19.4909 9.94709 19.5079 10.0031 19.5449L11.8731 20.6649C11.9471 20.7009 12.0391 20.7009 12.0941 20.6649L19.4131 16.4279C19.4871 16.3919 19.5231 16.3179 19.5231 16.2259V7.76795C19.5231 7.67695 19.4871 7.60295 19.4131 7.56695L12.0941 3.34795C12.0211 3.31095 11.9291 3.31095 11.8731 3.34795L4.55209 7.56595C4.47909 7.60195 4.44209 7.69495 4.44209 7.76695V16.2239C4.44209 16.2969 4.47909 16.3899 4.55209 16.4259L6.55209 17.5829C7.63409 18.1309 8.31409 17.4879 8.31409 16.8479V8.50195C8.31409 8.39195 8.40509 8.28095 8.53409 8.28095H9.47009C9.57809 8.28095 9.69009 8.37295 9.69009 8.50195V16.8489C9.69009 18.2979 8.90209 19.1429 7.52609 19.1429C7.10409 19.1429 6.77409 19.1429 5.83809 18.6829L3.91309 17.5839C3.67855 17.4476 3.4839 17.2521 3.3486 17.0169C3.2133 16.7818 3.14209 16.5152 3.14209 16.2439V7.78595C3.14209 7.23595 3.43509 6.72195 3.91309 6.44695L11.2291 2.20995C11.4666 2.08293 11.7318 2.01648 12.0011 2.01648C12.2704 2.01648 12.5356 2.08293 12.7731 2.20995L20.0901 6.44695C20.5691 6.72095 20.8611 7.23595 20.8611 7.78595V16.2439C20.8611 16.7929 20.5681 17.3069 20.0901 17.5839L12.7731 21.8199C12.5321 21.9299 12.2571 21.9849 12.0001 21.9849ZM14.2561 16.1689C11.0461 16.1689 10.3861 14.7009 10.3861 13.4549C10.3861 13.3449 10.4781 13.2339 10.6061 13.2339H11.5601C11.6701 13.2339 11.7611 13.3069 11.7611 13.4179C11.9081 14.3889 12.3291 14.8669 14.2751 14.8669C15.8151 14.8669 16.4771 14.5169 16.4771 13.6919C16.4771 13.2149 16.2921 12.8669 13.8901 12.6289C11.8911 12.4289 10.6441 11.9859 10.6441 10.3909C10.6441 8.90595 11.8911 8.02495 13.9831 8.02495C16.3301 8.02495 17.4861 8.83395 17.6321 10.5929C17.6303 10.6523 17.6108 10.7098 17.5761 10.7579C17.5391 10.7939 17.4851 10.8309 17.4301 10.8309H16.4771C16.43 10.8299 16.3846 10.8133 16.348 10.7836C16.3114 10.7539 16.2857 10.7128 16.2751 10.6669C16.0541 9.65495 15.4861 9.32695 13.9831 9.32695C12.2941 9.32695 12.0921 9.91395 12.0921 10.3539C12.0921 10.8849 12.3291 11.0499 14.6061 11.3439C16.8621 11.6369 17.9261 12.0589 17.9261 13.6379C17.9061 15.2529 16.5871 16.1689 14.2561 16.1689Z" fill="#CECECE"/>
</svg>
