<svg width="24" height="24" viewBox="0 0 24 24" fill="none" xmlns="http://www.w3.org/2000/svg">
<g clip-path="url(#clip0_391_769)">
<g clip-path="url(#clip1_391_769)">
<path fill-rule="evenodd" clip-rule="evenodd" d="M1.5 12C1.50028 9.64253 2.29388 7.35376 3.75305 5.50216C5.21221 3.65056 7.25203 2.34387 9.5441 1.79247C11.8362 1.24108 14.2471 1.47705 16.3887 2.46241C18.5304 3.44777 20.2781 5.12517 21.3506 7.22456C22.423 9.32395 22.7578 11.7232 22.301 14.0359C21.8441 16.3487 20.6223 18.4404 18.8322 19.9744C17.042 21.5084 14.7878 22.3953 12.4323 22.4923C10.0769 22.5894 7.75727 21.891 5.847 20.5095C5.5965 20.328 5.523 19.9005 5.844 19.5795L8.544 16.8795C9.55516 17.636 10.8051 18.0027 12.0647 17.9123C13.3244 17.822 14.5092 17.2806 15.402 16.3875L17.523 14.265C17.6636 14.1243 17.7426 13.9336 17.7426 13.7347C17.7426 13.5359 17.6636 13.3451 17.523 13.2045L16.4625 12.144L18.801 9.79949C18.8725 9.7302 18.9295 9.64736 18.9687 9.5558C19.0079 9.46425 19.0284 9.36581 19.0292 9.26622C19.0299 9.16664 19.0108 9.06791 18.9729 8.9758C18.9351 8.88368 18.8793 8.80003 18.8088 8.72971C18.7382 8.65939 18.6544 8.60382 18.5622 8.56624C18.47 8.52866 18.3712 8.50982 18.2716 8.51083C18.172 8.51183 18.0737 8.53266 17.9822 8.57209C17.8908 8.61152 17.8081 8.66876 17.739 8.74049L15.4005 11.0835L13.2795 8.96249L15.6195 6.61949C15.6938 6.55096 15.7536 6.46812 15.7951 6.37592C15.8366 6.28373 15.859 6.1841 15.861 6.08301C15.8631 5.98193 15.8446 5.88148 15.8068 5.7877C15.7691 5.69392 15.7127 5.60875 15.6412 5.5373C15.5696 5.46586 15.4844 5.40962 15.3905 5.37197C15.2967 5.33431 15.1962 5.31602 15.0951 5.31818C14.9941 5.32035 14.8944 5.34293 14.8023 5.38457C14.7102 5.42621 14.6274 5.48605 14.559 5.56049L12.219 7.90049L11.1585 6.84149C11.0179 6.70088 10.8271 6.6219 10.6282 6.6219C10.4294 6.6219 10.2386 6.70088 10.098 6.84149L7.977 8.96249C7.08428 9.85522 6.54316 11.0398 6.4528 12.299C6.36244 13.5583 6.72889 14.8079 7.485 15.819L4.785 18.519C3.915 19.389 3.855 20.919 4.9665 21.7245C7.14947 23.3037 9.80038 24.1023 12.4924 23.9917C15.1844 23.8812 17.7609 22.8679 19.807 21.115C21.8532 19.3621 23.2499 16.9717 23.7723 14.3285C24.2947 11.6854 23.9124 8.94329 22.6869 6.54382C21.4614 4.14435 19.4641 2.22709 17.0166 1.10075C14.569 -0.0256003 11.8136 -0.295496 9.19402 0.334514C6.57442 0.964524 4.24306 2.45778 2.5753 4.57386C0.907532 6.68993 0.00041587 9.30569 0 12C0 12.1989 0.0790176 12.3897 0.21967 12.5303C0.360322 12.671 0.551088 12.75 0.75 12.75C0.948912 12.75 1.13968 12.671 1.28033 12.5303C1.42098 12.3897 1.5 12.1989 1.5 12Z" fill="#CECECE"/>
</g>
</g>
<defs>
<clipPath id="clip0_391_769">
<rect width="24" height="24" fill="white"/>
</clipPath>
<clipPath id="clip1_391_769">
<rect width="24" height="24" fill="white"/>
</clipPath>
</defs>
</svg>
