<svg width="24" height="24" viewBox="0 0 24 24" fill="none" xmlns="http://www.w3.org/2000/svg">
<g clip-path="url(#clip0_507_783)">
<path d="M20.0556 13.9958C19.8756 13.7873 19.5681 13.8443 19.3304 13.8915C18.7589 13.9935 18.1371 14.112 17.5836 13.8743C18.5721 12.3143 19.3499 10.611 19.7849 8.81328C19.9431 8.13003 20.0654 7.43103 20.0421 6.72753C20.0249 6.33378 19.9701 5.91453 19.7294 5.58828C19.1339 4.80303 18.2706 4.23078 17.3189 3.97503C16.1301 3.65253 14.8551 3.74853 13.6859 4.11003C13.5891 4.12953 13.4939 4.08603 13.3994 4.07403C12.3381 3.85878 11.1681 3.94353 10.2479 4.55778C9.14313 4.16028 7.95588 3.92028 6.77988 4.04328C5.90538 4.13403 5.02713 4.54053 4.52538 5.28528C3.89088 6.21453 3.80463 7.40103 3.90588 8.49003C4.10988 9.93603 4.46238 11.3595 4.91088 12.7478C5.20638 13.6133 5.53188 14.4855 6.05763 15.2415C6.32463 15.6128 6.67938 15.987 7.15713 16.0455C7.58163 16.0973 7.96563 15.834 8.22588 15.522C8.67588 14.9835 9.13863 14.4548 9.61863 13.9433C9.93213 14.097 10.2726 14.1855 10.6206 14.2118C10.4324 14.4353 10.2771 14.727 9.97713 14.8148C9.57288 14.9708 9.09963 14.9498 8.74338 15.219C8.53788 15.366 8.52813 15.6863 8.71263 15.855C9.04638 16.179 9.53838 16.2488 9.98238 16.2863C10.6116 16.3343 11.2476 16.1228 11.7254 15.7103C11.7224 16.7108 11.7269 17.7143 11.8394 18.7095C11.8956 19.2923 12.1469 19.8728 12.5901 20.265C13.0079 20.6295 13.6034 20.7053 14.1336 20.613C14.6541 20.514 15.1889 20.358 15.5954 20.0025C16.0274 19.6215 16.2119 19.0463 16.2974 18.4943C16.4526 17.505 16.5704 16.5113 16.6829 15.5175C17.7951 15.705 19.0536 15.492 19.8846 14.6798C20.0624 14.5125 20.2311 14.223 20.0556 13.9958ZM17.5874 4.58778C18.2549 4.84128 18.8481 5.28153 19.2936 5.83878C19.5059 6.10503 19.5329 6.46278 19.5464 6.78978C19.5561 7.56978 19.3986 8.34003 19.1984 9.09003C18.8151 10.4783 18.2331 11.8088 17.5019 13.0478C17.4299 13.17 17.3511 13.2878 17.2641 13.3995C17.2574 13.3658 17.2439 13.2968 17.2371 13.2623C17.3279 13.0238 17.4606 12.7988 17.5124 12.5453C17.6954 11.8305 17.5409 11.0948 17.4749 10.3755C17.4059 9.69678 17.6376 9.03603 17.6316 8.35878C17.6579 8.02728 17.5266 7.71378 17.3991 7.41603C16.9379 6.38478 16.2044 5.46753 15.2631 4.83753C15.0336 4.68003 14.7771 4.56978 14.5484 4.41153C15.5489 4.19703 16.6221 4.22403 17.5866 4.58703L17.5874 4.58778ZM16.9776 10.377C17.0361 11.1803 17.2694 12.0428 16.8906 12.8048C16.3829 11.7945 15.7266 10.83 15.4979 9.70503C15.4334 9.34728 15.4169 8.89428 15.7349 8.64528C16.1384 8.35878 16.6656 8.42328 17.1321 8.45178C17.1119 9.09603 16.9139 9.72828 16.9784 10.377H16.9776ZM7.90038 15.1358C7.71813 15.3503 7.47213 15.606 7.16163 15.5423C6.79863 15.4373 6.56763 15.1058 6.36513 14.808C5.81838 13.9335 5.48913 12.9458 5.18688 11.9655C4.84863 10.8053 4.56363 9.62628 4.39938 8.42778C4.31763 7.51578 4.36863 6.53778 4.83513 5.72553C5.18463 5.11053 5.83638 4.71828 6.52113 4.59003C7.61763 4.37928 8.74188 4.60278 9.79413 4.92378C9.32988 5.43378 8.96838 6.03453 8.75763 6.69228C8.47038 7.57053 8.33913 8.50503 8.40813 9.42828C8.44788 10.0785 8.43063 10.7318 8.33988 11.3768C8.22588 12.219 8.56413 13.0853 9.18963 13.6538C8.76363 14.1518 8.31213 14.6265 7.89963 15.1365L7.90038 15.1358ZM8.86038 12.1185C8.75313 11.6415 8.89338 11.1615 8.90913 10.6838C8.94588 10.143 8.90763 9.60153 8.89713 9.06078C9.40263 8.73378 9.99363 8.47803 10.6064 8.51328C10.9236 8.52678 11.2161 8.75103 11.2926 9.06378C11.5709 10.1715 11.6571 11.4045 11.1239 12.4538C10.9379 12.8588 10.7871 13.278 10.6574 13.7033C9.77088 13.7123 9.01713 12.9623 8.86038 12.1185ZM11.6189 15.084C11.0624 15.8378 9.94863 15.9818 9.14388 15.5715C9.54063 15.3878 10.0049 15.402 10.3881 15.1755C10.7586 14.976 10.9056 14.5373 11.2521 14.3115C11.6294 14.2583 11.9046 14.8185 11.6196 15.0833L11.6189 15.084ZM16.3919 14.2035C16.1804 14.544 16.2546 14.9595 16.2029 15.3375C16.0814 16.3973 15.9621 17.4585 15.7896 18.5115C15.7079 19.0163 15.4934 19.5525 15.0171 19.8038C14.5289 20.052 13.9619 20.208 13.4129 20.1233C12.8916 20.0318 12.5631 19.5458 12.4154 19.0725C12.3074 18.6758 12.2961 18.261 12.2654 17.8523C12.2129 16.866 12.2121 15.8775 12.2376 14.8905C12.2594 14.505 12.0614 14.1038 11.7171 13.9163C11.5506 13.8225 11.3556 13.8098 11.1696 13.7948C11.3159 13.0695 11.7576 12.4433 11.9091 11.7188C12.1056 10.8225 11.9969 9.88953 11.7959 9.00453C11.6976 8.56278 11.3616 8.17203 10.9146 8.06478C10.2261 7.89153 9.53163 8.16078 8.91588 8.44878C8.99388 7.44828 9.26163 6.42378 9.87438 5.61153C10.3251 5.00703 11.0241 4.60353 11.7704 4.50678C13.0019 4.35003 14.2949 4.68903 15.2736 5.45928C16.0821 6.09828 16.7211 6.96378 17.0654 7.93728C16.4931 7.91703 15.8444 7.89378 15.3816 8.29128C14.9616 8.64528 14.9076 9.24903 15.0021 9.75603C15.2211 10.962 15.9329 11.9873 16.4579 13.0718C16.5974 13.326 16.7849 13.548 16.9634 13.776C16.7511 13.8833 16.5141 13.986 16.3934 14.2043L16.3919 14.2035ZM17.8649 15.0563C17.4869 15.1013 17.0939 15.1148 16.7294 14.9895C16.7309 14.7833 16.7196 14.5388 16.8854 14.385C17.0166 14.2883 17.2034 14.199 17.3549 14.3048C17.9999 14.6445 18.7499 14.4788 19.4361 14.3955C19.0169 14.8035 18.4364 14.994 17.8649 15.0563ZM15.8834 8.79603C15.7491 8.90628 15.8939 9.07128 16.0094 9.12303C16.2891 9.28728 16.6724 9.05778 16.6814 8.73828C16.4286 8.62053 16.1121 8.63253 15.8834 8.79603ZM10.9319 9.30603C11.0511 9.23853 11.1771 9.05328 11.0391 8.94153C10.8426 8.78178 10.5569 8.75103 10.3176 8.81553C10.2404 8.84253 10.1594 8.89503 10.1751 8.98953C10.2306 9.31053 10.6604 9.50553 10.9311 9.30603H10.9319Z" fill="#CECECE"/>
</g>
<defs>
<clipPath id="clip0_507_783">
<rect width="24" height="24" fill="white"/>
</clipPath>
</defs>
</svg>
