<svg width="24" height="24" viewBox="0 0 24 24" fill="none" xmlns="http://www.w3.org/2000/svg">
<g clip-path="url(#clip0_390_759)">
<path d="M11.9998 13.03C12.9857 13.03 13.7848 12.2308 13.7848 11.245C13.7848 10.2591 12.9857 9.45996 11.9998 9.45996C11.014 9.45996 10.2148 10.2591 10.2148 11.245C10.2148 12.2308 11.014 13.03 11.9998 13.03Z" fill="#CECECE"/>
<path d="M7.00223 14.794L6.60723 14.693C3.67323 13.952 1.99023 12.692 1.99023 11.241C1.99023 9.78899 3.67423 8.52999 6.60723 7.78899L7.00223 7.68899L7.11323 8.07999C7.40978 9.10368 7.78971 10.1014 8.24923 11.063L8.33423 11.241L8.24923 11.419C7.78923 12.382 7.40823 13.38 7.11323 14.404L7.00223 14.794ZM6.42523 8.69899C4.19623 9.32699 2.82723 10.285 2.82723 11.241C2.82723 12.195 4.19523 13.154 6.42523 13.781C6.69823 12.913 7.02823 12.064 7.41023 11.241C7.02547 10.4166 6.6964 9.56738 6.42523 8.69899ZM16.9972 14.794L16.8872 14.402C16.5899 13.3781 16.2097 12.3801 15.7502 11.418L15.6652 11.241L15.7502 11.062C16.2102 10.101 16.5892 9.10199 16.8872 8.07799L16.9972 7.68799L17.3922 7.78799C20.3272 8.52899 22.0092 9.78799 22.0092 11.241C22.0092 12.693 20.3262 13.952 17.3922 14.693L16.9972 14.794ZM16.5872 11.241C16.9872 12.107 17.3202 12.959 17.5742 13.781C19.8042 13.154 21.1732 12.195 21.1732 11.241C21.1732 10.285 19.8052 9.32799 17.5742 8.69899C17.3015 9.56711 16.9718 10.4163 16.5872 11.241Z" fill="#CECECE"/>
<path d="M6.41878 8.695L6.30878 8.305C5.48278 5.397 5.73278 3.314 6.99578 2.588C8.23078 1.873 10.2178 2.718 12.2988 4.853L12.5828 5.145L12.2988 5.436C11.5597 6.20469 10.8841 7.03207 10.2788 7.91L10.1658 8.072L9.96978 8.088C8.90536 8.1716 7.84953 8.34183 6.81278 8.597L6.41878 8.695ZM8.00078 3.166C7.77678 3.166 7.57878 3.215 7.41178 3.311C6.58378 3.788 6.43778 5.449 7.00778 7.691C7.89878 7.494 8.79778 7.353 9.70378 7.274C10.2283 6.53005 10.8005 5.8209 11.4168 5.151C10.1138 3.884 8.88378 3.166 8.00078 3.166ZM15.9978 20.15C14.8098 20.15 13.2838 19.254 11.6998 17.628L11.4168 17.337L11.6998 17.047C12.439 16.2771 13.1149 15.4487 13.7208 14.57L13.8328 14.41L14.0268 14.391C15.0916 14.3089 16.1478 14.1393 17.1848 13.884L17.5798 13.784L17.6908 14.175C18.5128 17.081 18.2638 19.167 17.0028 19.893C16.6966 20.0665 16.3497 20.1553 15.9978 20.15ZM12.5828 17.33C13.8848 18.597 15.1158 19.316 15.9978 19.316C16.2228 19.316 16.4208 19.266 16.5868 19.171C17.4158 18.693 17.5628 17.029 16.9908 14.787C16.1008 14.985 15.2008 15.127 14.2928 15.206C13.7705 15.9511 13.1992 16.6607 12.5828 17.33Z" fill="#CECECE"/>
<path d="M17.58 8.69495L17.185 8.59595C16.1481 8.33998 15.0918 8.16974 14.027 8.08695L13.833 8.06995L13.721 7.90795C13.116 7.02953 12.44 6.20211 11.7 5.43395L11.417 5.14295L11.7 4.85295C13.78 2.71895 15.766 1.87395 17.003 2.58795C18.265 3.31495 18.516 5.39795 17.691 8.30495L17.58 8.69495ZM14.293 7.27395C15.247 7.35895 16.151 7.50195 16.991 7.69095C17.562 5.44895 17.416 3.78795 16.587 3.30995C15.763 2.83295 14.212 3.56295 12.583 5.15095C13.199 5.82095 13.771 6.52895 14.293 7.27395ZM8.00101 20.1499C7.64914 20.155 7.30227 20.0663 6.99601 19.8929C5.73301 19.1669 5.48301 17.0819 6.30801 14.1749L6.41601 13.7839L6.81101 13.8839C7.77501 14.1269 8.83701 14.2979 9.96901 14.3909L10.163 14.4099L10.276 14.5699C10.88 15.4479 11.556 16.277 12.296 17.047L12.58 17.3369L12.296 17.6279C10.713 19.2549 9.18701 20.1499 8.00101 20.1499ZM7.00801 14.7879C6.43801 17.0299 6.58401 18.6939 7.41201 19.1719C8.23701 19.6419 9.78301 18.9169 11.417 17.3299C10.801 16.6598 10.2288 15.9507 9.70401 15.2069C8.7971 15.1267 7.89648 14.9868 7.00801 14.7879Z" fill="#CECECE"/>
<path d="M12.0002 15.313C11.3132 15.313 10.6082 15.284 9.90016 15.225L9.70416 15.208L9.59116 15.046C9.19191 14.4719 8.81626 13.8817 8.46516 13.277C8.11665 12.6706 7.79272 12.0504 7.49416 11.418L7.41016 11.241L7.49416 11.062C7.79316 10.43 8.11616 9.80996 8.46516 9.20396C8.81216 8.60796 9.19116 8.01196 9.59116 7.43396L9.70416 7.27396L9.90016 7.25596C11.297 7.13896 12.7013 7.13896 14.0982 7.25596L14.2922 7.27496L14.4052 7.43496C15.205 8.58372 15.9074 9.79727 16.5052 11.063L16.5882 11.242L16.5052 11.419C15.909 12.6855 15.2065 13.8992 14.4052 15.047L14.2922 15.209L14.0982 15.226C13.3922 15.283 12.6862 15.313 12.0002 15.313ZM10.1662 14.409C11.4012 14.502 12.5992 14.502 13.8332 14.409C14.522 13.4002 15.1344 12.3412 15.6652 11.241C15.1363 10.1397 14.5238 9.08062 13.8332 8.07296C12.6126 7.97896 11.3867 7.97896 10.1662 8.07296C9.4749 9.08026 8.86241 10.1394 8.33416 11.241C8.86603 12.3406 9.47837 13.3995 10.1662 14.409Z" fill="#CECECE"/>
</g>
<defs>
<clipPath id="clip0_390_759">
<rect width="24" height="24" fill="white"/>
</clipPath>
</defs>
</svg>
