<svg width="21" height="21" viewBox="0 0 21 21" fill="none" xmlns="http://www.w3.org/2000/svg">
<path d="M9.75815 2.12908C9.97589 1.45894 10.924 1.45894 11.1417 2.12908L12.5729 6.5339C12.6703 6.8336 12.9496 7.03651 13.2647 7.03651H17.8962C18.6008 7.03651 18.8938 7.93818 18.3237 8.35235L14.5768 11.0747C14.3218 11.2599 14.2152 11.5882 14.3125 11.8879L15.7438 16.2927C15.9615 16.9629 15.1945 17.5201 14.6244 17.106L10.8775 14.3836C10.6225 14.1984 10.2773 14.1984 10.0224 14.3836L6.27542 17.106C5.70537 17.5201 4.93836 16.9629 5.1561 16.2927L6.58731 11.8879C6.68469 11.5882 6.57801 11.2599 6.32308 11.0747L2.57611 8.35235C2.00606 7.93818 2.29903 7.03651 3.00366 7.03651H7.63516C7.95028 7.03651 8.22956 6.8336 8.32694 6.5339L9.75815 2.12908Z" fill="#F44324"/>
</svg>
