<svg width="24" height="24" viewBox="0 0 24 24" fill="none" xmlns="http://www.w3.org/2000/svg">
<g clip-path="url(#clip0_383_814)">
<g clip-path="url(#clip1_383_814)">
<path d="M10.2797 7.24688C10.2797 6.20156 11.1516 5.79844 12.5484 5.79844C14.5828 5.79844 17.1656 6.42187 19.2 7.51875V1.22344C16.9828 0.3375 14.7703 0 12.5531 0C7.12969 0 3.51562 2.83125 3.51562 7.56562C3.51562 14.9672 13.6781 13.7672 13.6781 16.9594C13.6781 18.1969 12.6047 18.5953 11.1141 18.5953C8.90156 18.5953 6.04219 17.6813 3.79687 16.4625V22.4859C6.10634 23.4823 8.59416 23.999 11.1094 24.0047C16.6687 24.0047 20.4984 21.6141 20.4984 16.8047C20.4984 8.82656 10.2797 10.2563 10.2797 7.24688Z" fill="#CECECE"/>
</g>
</g>
<defs>
<clipPath id="clip0_383_814">
<rect width="24" height="24" fill="white"/>
</clipPath>
<clipPath id="clip1_383_814">
<rect width="24" height="24" fill="white"/>
</clipPath>
</defs>
</svg>
