<svg width="24" height="24" viewBox="0 0 24 24" fill="none" xmlns="http://www.w3.org/2000/svg">
<g clip-path="url(#clip0_383_811)">
<g clip-path="url(#clip1_383_811)">
<path d="M0.754011 9.57996C0.654656 9.57996 0.556282 9.59959 0.46454 9.63773C0.372799 9.67587 0.289501 9.73177 0.219433 9.80221C0.149365 9.87265 0.0939093 9.95624 0.0562533 10.0482C0.0185973 10.1401 -0.000516467 10.2386 1.06111e-05 10.338V12.863C1.06111e-05 13.283 0.339011 13.621 0.758011 13.621H3.89301L5.32401 14.42L4.99801 13.621H7.37101C7.47059 13.6211 7.56922 13.6016 7.66124 13.5635C7.75326 13.5255 7.83688 13.4697 7.90729 13.3992C7.9777 13.3288 8.03353 13.2452 8.07158 13.1532C8.10963 13.0612 8.12914 12.9625 8.12901 12.863V10.338C8.12914 10.2384 8.10963 10.1398 8.07158 10.0477C8.03353 9.9557 7.9777 9.87209 7.90729 9.80168C7.83688 9.73126 7.75326 9.67543 7.66124 9.63739C7.56922 9.59934 7.47059 9.57983 7.37101 9.57996H0.754011ZM3.46301 10.025H3.49301C3.55801 10.026 3.61701 10.048 3.67201 10.092C3.7018 10.1144 3.72642 10.143 3.74419 10.1757C3.76196 10.2085 3.77247 10.2448 3.77501 10.282C3.77957 10.3374 3.76812 10.3929 3.74201 10.442C3.61201 10.681 3.50601 11.082 3.42001 11.641C3.33701 12.182 3.30601 12.606 3.32601 12.908C3.33443 12.9832 3.32088 13.0593 3.28701 13.127C3.27079 13.1606 3.24598 13.1895 3.21509 13.2105C3.18419 13.2316 3.1483 13.2442 3.11101 13.247C3.02501 13.253 2.93401 13.213 2.84801 13.123C2.53801 12.807 2.29301 12.335 2.11301 11.707C1.89701 12.132 1.73801 12.451 1.63501 12.664C1.43901 13.04 1.27201 13.232 1.13301 13.242C1.04301 13.249 0.967011 13.173 0.900011 13.014C0.730011 12.578 0.548011 11.737 0.352011 10.49C0.34591 10.4512 0.347541 10.4117 0.356809 10.3736C0.366078 10.3355 0.3828 10.2996 0.406011 10.268C0.453011 10.204 0.522011 10.173 0.616011 10.166C0.785011 10.153 0.881011 10.231 0.904011 10.404C1.00701 11.099 1.12101 11.688 1.24001 12.17L1.96701 10.783C2.03301 10.657 2.11701 10.591 2.21701 10.584C2.36301 10.574 2.45401 10.667 2.49001 10.864C2.57301 11.305 2.67801 11.681 2.80501 12C2.89101 11.156 3.03801 10.547 3.24501 10.172C3.26457 10.13 3.2952 10.0941 3.3336 10.0682C3.37201 10.0423 3.41675 10.0273 3.46301 10.025ZM4.75601 10.385C4.81201 10.385 4.87201 10.391 4.93601 10.405C5.16801 10.455 5.34701 10.582 5.46601 10.791C5.57301 10.971 5.62701 11.186 5.62701 11.445C5.62701 11.788 5.54001 12.099 5.36701 12.385C5.16701 12.717 4.90801 12.885 4.58601 12.885C4.52541 12.8838 4.46509 12.8765 4.40601 12.863C4.29454 12.8424 4.18904 12.7973 4.09719 12.7309C4.00534 12.6644 3.92944 12.5784 3.87501 12.479C3.76442 12.2773 3.70986 12.0498 3.71701 11.82C3.71701 11.478 3.80201 11.165 3.97501 10.883C4.17701 10.55 4.43801 10.385 4.75601 10.385ZM6.84001 10.385C6.89601 10.385 6.95601 10.391 7.02001 10.405C7.25601 10.455 7.43101 10.582 7.55001 10.791C7.65701 10.971 7.71001 11.186 7.71001 11.445C7.71001 11.788 7.62401 12.099 7.45101 12.385C7.25101 12.717 6.99201 12.885 6.67001 12.885C6.60941 12.8838 6.54909 12.8765 6.49001 12.863C6.37854 12.8424 6.27304 12.7973 6.18119 12.7309C6.08934 12.6644 6.01344 12.5784 5.95901 12.479C5.84772 12.2775 5.79247 12.05 5.79901 11.82C5.79901 11.478 5.88601 11.165 6.05901 10.883C6.26101 10.55 6.52201 10.385 6.84001 10.385ZM11.277 10.432C10.972 10.432 10.731 10.534 10.559 10.736C10.386 10.939 10.303 11.226 10.303 11.592C10.303 11.987 10.389 12.289 10.559 12.498C10.729 12.708 10.977 12.814 11.303 12.814C11.618 12.814 11.862 12.707 12.031 12.498C12.201 12.288 12.287 11.994 12.287 11.615C12.287 11.236 12.2 10.942 12.027 10.736C11.851 10.534 11.603 10.432 11.277 10.432ZM9.81101 10.434C9.65612 10.4278 9.50162 10.4535 9.35711 10.5096C9.2126 10.5657 9.08118 10.6509 8.97101 10.76C8.74801 10.98 8.63901 11.259 8.63901 11.598C8.63901 11.96 8.74701 12.256 8.96701 12.478C9.18701 12.701 9.47201 12.814 9.82801 12.814C9.93101 12.814 10.048 12.798 10.174 12.762V12.222C10.057 12.256 9.95801 12.273 9.87101 12.273C9.79204 12.2758 9.7134 12.2615 9.64053 12.2309C9.56767 12.2003 9.50231 12.1543 9.44901 12.096C9.34301 11.976 9.28901 11.818 9.28901 11.616C9.28901 11.426 9.34201 11.268 9.44501 11.148C9.49311 11.0896 9.55385 11.043 9.62263 11.0117C9.69142 10.9803 9.76644 10.965 9.84201 10.967C9.94501 10.967 10.054 10.982 10.174 11.016V10.479C10.0555 10.4481 9.93346 10.4329 9.81101 10.434ZM22.225 10.434C22.0702 10.4281 21.9157 10.454 21.7713 10.51C21.6268 10.5661 21.4954 10.6512 21.385 10.76C21.162 10.98 21.053 11.259 21.053 11.598C21.053 11.96 21.161 12.256 21.381 12.478C21.601 12.701 21.887 12.814 22.242 12.814C22.345 12.814 22.462 12.798 22.588 12.762V12.222C22.472 12.256 22.372 12.273 22.285 12.273C22.206 12.2758 22.1274 12.2615 22.0545 12.2309C21.9817 12.2003 21.9163 12.1543 21.863 12.096C21.757 11.976 21.703 11.818 21.703 11.616C21.703 11.426 21.756 11.268 21.859 11.148C21.9071 11.0896 21.9678 11.043 22.0366 11.0117C22.1054 10.9803 22.1804 10.965 22.256 10.967C22.359 10.967 22.468 10.982 22.588 11.016V10.479C22.4695 10.4481 22.3475 10.4329 22.225 10.434ZM12.627 10.494L12.337 12.758H12.916L13.072 11.199L13.467 12.758H13.879L14.258 11.203L14.422 12.758H15.025L14.721 10.494H13.93L13.81 11.002C13.78 11.132 13.75 11.266 13.723 11.402L13.656 11.754C13.579 11.3322 13.493 10.9121 13.398 10.494H12.627ZM15.395 10.494L15.105 12.758H15.684L15.84 11.199L16.236 12.758H16.648L17.023 11.203L17.188 12.758H17.791L17.486 10.494H16.697L16.578 11.002C16.548 11.132 16.518 11.266 16.492 11.402L16.426 11.754C16.363 11.402 16.276 10.983 16.166 10.494H15.395ZM19.383 10.494V12.758H19.994V11.727H20.006L20.5 12.757H21.145L20.656 11.738C20.7644 11.6916 20.8571 11.6147 20.9228 11.5168C20.9884 11.4188 21.0243 11.3039 21.026 11.186C21.0292 11.0876 21.0081 10.9899 20.9645 10.9016C20.9208 10.8133 20.8561 10.7372 20.776 10.68C20.609 10.557 20.382 10.494 20.096 10.494H19.383ZM22.76 10.494V12.758H24V12.275H23.37V11.861H23.91V11.393H23.37V10.977H23.996V10.494H22.76ZM17.967 10.498V12.762H19.207V12.279H18.58V11.863H19.121V11.395H18.581V10.98H19.203V10.498H17.967ZM19.992 10.93C20.138 10.933 20.242 10.955 20.305 11.002C20.368 11.048 20.396 11.122 20.396 11.229C20.396 11.385 20.261 11.465 19.992 11.469V10.929V10.93ZM4.77201 10.941C4.66801 10.941 4.56701 11.01 4.47101 11.152C4.33821 11.3383 4.26816 11.5621 4.27101 11.791C4.27101 11.887 4.29101 11.991 4.33101 12.094C4.38001 12.224 4.44801 12.292 4.52701 12.309C4.61001 12.325 4.70001 12.289 4.79701 12.203C4.92001 12.093 5.00201 11.93 5.04901 11.711C5.06501 11.634 5.07201 11.551 5.07201 11.465C5.07201 11.368 5.05201 11.265 5.01201 11.162C4.96201 11.032 4.89601 10.964 4.81601 10.947C4.80123 10.9436 4.78716 10.9416 4.77201 10.941ZM6.85501 10.941C6.75201 10.941 6.65101 11.01 6.55501 11.152C6.42221 11.3383 6.35216 11.5621 6.35501 11.791C6.35501 11.887 6.37501 11.991 6.41501 12.094C6.46401 12.224 6.53201 12.292 6.61101 12.309C6.69401 12.325 6.78401 12.289 6.88101 12.203C7.00401 12.093 7.08601 11.93 7.13301 11.711C7.14601 11.634 7.15601 11.551 7.15601 11.465C7.15601 11.368 7.13601 11.265 7.09601 11.162C7.04601 11.032 6.98001 10.964 6.90001 10.947C6.88523 10.9436 6.87016 10.9416 6.85501 10.941ZM11.283 10.947C11.516 10.947 11.637 11.165 11.637 11.607C11.633 11.88 11.599 12.067 11.539 12.16C11.5117 12.2043 11.473 12.2406 11.4269 12.2651C11.3808 12.2895 11.3291 12.3012 11.277 12.299C11.2278 12.3005 11.179 12.2883 11.1363 12.2637C11.0936 12.2392 11.0585 12.2033 11.035 12.16C10.979 12.067 10.951 11.88 10.951 11.598C10.951 11.162 11.061 10.948 11.283 10.948V10.947Z" fill="#CECECE"/>
</g>
</g>
<defs>
<clipPath id="clip0_383_811">
<rect width="24" height="24" fill="white"/>
</clipPath>
<clipPath id="clip1_383_811">
<rect width="24" height="24" fill="white"/>
</clipPath>
</defs>
</svg>
