<svg width="24" height="24" viewBox="0 0 24 24" fill="none" xmlns="http://www.w3.org/2000/svg">
<path d="M19.891 7.78795C20.614 9.1104 20.992 10.5938 20.99 12.101C20.9904 13.6742 20.5777 15.22 19.7933 16.5837C19.0089 17.9474 17.8801 19.0813 16.52 19.872L19.266 11.933C19.779 10.651 19.95 9.62395 19.95 8.71395C19.9504 8.40434 19.9307 8.09502 19.891 7.78795ZM13.24 7.87495C13.583 7.85809 13.9252 7.82873 14.266 7.78695C14.751 7.72395 14.694 7.01195 14.21 7.03795C14.21 7.03795 12.747 7.14995 11.81 7.14995C10.923 7.14995 9.435 7.02495 9.435 7.02495C8.948 7.00095 8.885 7.73795 9.374 7.76295C9.374 7.76295 9.823 7.81495 10.312 7.83795L11.711 11.676L9.736 17.575L6.462 7.85095C6.80543 7.83368 7.14825 7.80601 7.49 7.76795C7.977 7.70495 7.92 6.99295 7.435 7.02095C7.435 7.02095 5.98 7.13595 5.04 7.13595C4.873 7.13595 4.675 7.12895 4.465 7.12295C6.093 4.72595 8.862 3.11295 12 3.11295C14.341 3.11295 16.471 4.00695 18.071 5.47295C18.033 5.47095 17.995 5.46495 17.954 5.46495C17.071 5.46495 16.444 6.23495 16.444 7.06095C16.444 7.80195 16.871 8.42995 17.327 9.16895C17.67 9.76995 18.069 10.539 18.069 11.65C18.069 12.413 17.774 13.312 17.384 14.549L16.488 17.536L13.238 7.86095L13.24 7.87495ZM12 21.087C11.1403 21.0878 10.2849 20.9652 9.46 20.723L12.157 12.885L14.92 20.457C14.941 20.501 14.962 20.542 14.985 20.581C14.0258 20.9173 13.0165 21.0891 12 21.089M3.01 12.101C3.00854 10.8404 3.27368 9.5938 3.788 8.44295L8.075 20.192C6.55646 19.4546 5.27611 18.3048 4.38039 16.8739C3.48468 15.4431 3.00977 13.789 3.01 12.101ZM12 2.10095C6.487 2.10095 2 6.58795 2 12.101C2 17.614 6.487 22.101 12 22.101C17.513 22.101 22 17.614 22 12.101C22 6.58795 17.513 2.10095 12 2.10095Z" fill="#CECECE"/>
</svg>
