<svg width="3345" height="2612" viewBox="0 0 3345 2612" fill="none" xmlns="http://www.w3.org/2000/svg">
<mask id="mask0_137_289" style="mask-type:luminance" maskUnits="userSpaceOnUse" x="0" y="0" width="3345" height="2612">
<path d="M0 0H3345V2611.5H0V0Z" fill="white"/>
</mask>
<g mask="url(#mask0_137_289)">
<path d="M494.542 1410.44H248.741V1609.65H494.542V1410.44Z" fill="url(#paint0_radial_137_289)" fill-opacity="0.06"/>
<path d="M1477.74 812.796H1231.94V1012.01H1477.74V812.796Z" fill="url(#paint1_radial_137_289)" fill-opacity="0.06"/>
<path d="M1231.94 2008.08H986.142V2207.29H1231.94V2008.08Z" fill="url(#paint2_radial_137_289)" fill-opacity="0.06"/>
<path d="M2215.15 1609.65H1969.35V1808.86H2215.15V1609.65Z" fill="url(#paint3_radial_137_289)" fill-opacity="0.06"/>
<g filter="url(#filter0_dd_137_289)">
<path d="M1477.74 1410.44H1231.94V1609.65H1477.74V1410.44Z" fill="#F44324" fill-opacity="0.14"/>
</g>
<path d="M-242.863 15.9443H-488.664V215.159M-242.863 15.9443V215.159M-242.863 15.9443H2.93818M-488.664 215.159H-242.863M-488.664 215.159V414.371M-242.863 215.159H2.93818M-242.863 215.159V414.371M2.93818 15.9443V215.159M2.93818 15.9443H248.739M2.93818 215.159H248.739M2.93818 215.159V414.371M-242.863 414.371H-488.664M-242.863 414.371H2.93818M-242.863 414.371V613.585M-488.664 414.371V613.585M248.739 15.9443V215.159M248.739 15.9443H494.54M248.739 215.159H494.54M248.739 215.159V414.371M2.93818 414.371H248.739M2.93818 414.371V613.585M494.54 15.9443V215.159M494.54 15.9443H740.341M494.54 215.159H740.341M494.54 215.159V414.371M248.739 414.371H494.54M248.739 414.371V613.585M740.341 15.9443V215.159M740.341 15.9443H986.143M740.341 215.159H986.143M740.341 215.159V414.371M494.54 414.371H740.341M494.54 414.371V613.585M986.143 15.9443V215.159M986.143 15.9443H1231.94M986.143 215.159H1231.94M986.143 215.159V414.371M740.341 414.371H986.143M740.341 414.371V613.585M1231.94 15.9443V215.159M1231.94 15.9443H1477.74M1231.94 215.159H1477.74M1231.94 215.159V414.371M986.143 414.371H1231.94M986.143 414.371V613.585M1477.74 15.9443V215.159M1477.74 15.9443H1723.55M1477.74 215.159H1723.55M1477.74 215.159V414.371M1231.94 414.371H1477.74M1231.94 414.371V613.585M1723.55 15.9443V215.159M1723.55 15.9443H1969.35M1723.55 215.159H1969.35M1723.55 215.159V414.371M1477.74 414.371H1723.55M1477.74 414.371V613.585M1969.35 15.9443V215.159M1969.35 15.9443H2215.15M1969.35 215.159H2215.15M1969.35 215.159V414.371M1723.55 414.371H1969.35M1723.55 414.371V613.585M2215.15 15.9443V215.159M2215.15 15.9443H2460.95M2215.15 215.159H2460.95M2215.15 215.159V414.371M1969.35 414.371H2215.15M1969.35 414.371V613.585M2460.95 15.9443V215.159M2460.95 15.9443H2706.75M2460.95 215.159H2706.75M2460.95 215.159V414.371M2215.15 414.371H2460.95M2215.15 414.371V613.585M2706.75 15.9443V215.159M2706.75 15.9443H2952.55M2706.75 215.159H2952.55M2706.75 215.159V414.371M2460.95 414.371H2706.75M2460.95 414.371V613.585M2952.55 15.9443V215.159M2952.55 15.9443H3198.35V215.159M2952.55 215.159H3198.35M2952.55 215.159V414.371M2706.75 414.371H2952.55M2706.75 414.371V613.585M3198.35 215.159V414.371M2952.55 414.371H3198.35M2952.55 414.371V613.585M3198.35 414.371V613.585M-242.863 613.585H-488.664M-242.863 613.585H2.93818M-242.863 613.585V812.797M-488.664 613.585V812.797M2.93818 613.585H248.739M2.93818 613.585V812.797M248.739 613.585H494.54M248.739 613.585V812.797M494.54 613.585H740.341M494.54 613.585V812.797M740.341 613.585H986.143M740.341 613.585V812.797M986.143 613.585H1231.94M986.143 613.585V812.797M1231.94 613.585H1477.74M1231.94 613.585V812.797M1477.74 613.585H1723.55M1477.74 613.585V812.797M1723.55 613.585H1969.35M1723.55 613.585V812.797M1969.35 613.585H2215.15M1969.35 613.585V812.797M2215.15 613.585H2460.95M2215.15 613.585V812.797M2460.95 613.585H2706.75M2460.95 613.585V812.797M2706.75 613.585H2952.55M2706.75 613.585V812.797M2952.55 613.585H3198.35M2952.55 613.585V812.797M3198.35 613.585V812.797M-242.863 812.797H-488.664M-242.863 812.797H2.93818M-242.863 812.797V1012.01M-488.664 812.797V1012.01M2.93818 812.797H248.739M2.93818 812.797V1012.01M248.739 812.797H494.54M248.739 812.797V1012.01M494.54 812.797H740.341M494.54 812.797V1012.01M740.341 812.797H986.143M740.341 812.797V1012.01M986.143 812.797H1231.94M986.143 812.797V1012.01M1231.94 812.797H1477.74M1231.94 812.797V1012.01M1477.74 812.797H1723.55M1477.74 812.797V1012.01M1723.55 812.797H1969.35M1723.55 812.797V1012.01M1969.35 812.797H2215.15M1969.35 812.797V1012.01M2215.15 812.797H2460.95M2215.15 812.797V1012.01M2460.95 812.797H2706.75M2460.95 812.797V1012.01M2706.75 812.797H2952.55M2706.75 812.797V1012.01M2952.55 812.797H3198.35M2952.55 812.797V1012.01M3198.35 812.797V1012.01M-242.863 1012.01H-488.664M-242.863 1012.01H2.93818M-242.863 1012.01V1211.23M-488.664 1012.01V1211.23M2.93818 1012.01H248.739M2.93818 1012.01V1211.23M248.739 1012.01H494.54M248.739 1012.01V1211.23M494.54 1012.01H740.341M494.54 1012.01V1211.23M740.341 1012.01H986.143M740.341 1012.01V1211.23M986.143 1012.01H1231.94M986.143 1012.01V1211.23M1231.94 1012.01H1477.74M1231.94 1012.01V1211.23M1477.74 1012.01H1723.55M1477.74 1012.01V1211.23M1723.55 1012.01H1969.35M1723.55 1012.01V1211.23M1969.35 1012.01H2215.15M1969.35 1012.01V1211.23M2215.15 1012.01H2460.95M2215.15 1012.01V1211.23M2460.95 1012.01H2706.75M2460.95 1012.01V1211.23M2706.75 1012.01H2952.55M2706.75 1012.01V1211.23M2952.55 1012.01H3198.35M2952.55 1012.01V1211.23M3198.35 1012.01V1211.23M-242.863 1211.23H-488.664M-242.863 1211.23H2.93818M-242.863 1211.23V1410.44M-488.664 1211.23V1410.44M2.93818 1211.23H248.739M2.93818 1211.23V1410.44M248.739 1211.23H494.54M248.739 1211.23V1410.44M494.54 1211.23H740.341M494.54 1211.23V1410.44M740.341 1211.23H986.143M740.341 1211.23V1410.44M986.143 1211.23H1231.94M986.143 1211.23V1410.44M1231.94 1211.23H1477.74M1231.94 1211.23V1410.44M1477.74 1211.23H1723.55M1477.74 1211.23V1410.44M1723.55 1211.23H1969.35M1723.55 1211.23V1410.44M1969.35 1211.23H2215.15M1969.35 1211.23V1410.44M2215.15 1211.23H2460.95M2215.15 1211.23V1410.44M2460.95 1211.23H2706.75M2460.95 1211.23V1410.44M2706.75 1211.23H2952.55M2706.75 1211.23V1410.44M2952.55 1211.23H3198.35M2952.55 1211.23V1410.44M3198.35 1211.23V1410.44M-242.863 1410.44H-488.664M-242.863 1410.44H2.93818M-242.863 1410.44V1609.65M-488.664 1410.44V1609.65M2.93818 1410.44H248.739M2.93818 1410.44V1609.65M248.739 1410.44H494.54M248.739 1410.44V1609.65M494.54 1410.44H740.341M494.54 1410.44V1609.65M740.341 1410.44H986.143M740.341 1410.44V1609.65M986.143 1410.44H1231.94M986.143 1410.44V1609.65M1231.94 1410.44H1477.74M1231.94 1410.44V1609.65M1477.74 1410.44H1723.55M1477.74 1410.44V1609.65M1723.55 1410.44H1969.35M1723.55 1410.44V1609.65M1969.35 1410.44H2215.15M1969.35 1410.44V1609.65M2215.15 1410.44H2460.95M2215.15 1410.44V1609.65M2460.95 1410.44H2706.75M2460.95 1410.44V1609.65M2706.75 1410.44H2952.55M2706.75 1410.44V1609.65M2952.55 1410.44H3198.35M2952.55 1410.44V1609.65M3198.35 1410.44V1609.65M-242.863 1609.65H-488.664M-242.863 1609.65H2.93818M-242.863 1609.65V1808.86M-488.664 1609.65V1808.86M2.93818 1609.65H248.739M2.93818 1609.65V1808.86M248.739 1609.65H494.54M248.739 1609.65V1808.86M494.54 1609.65H740.341M494.54 1609.65V1808.86M740.341 1609.65H986.143M740.341 1609.65V1808.86M986.143 1609.65H1231.94M986.143 1609.65V1808.86M1231.94 1609.65H1477.74M1231.94 1609.65V1808.86M1477.74 1609.65H1723.55M1477.74 1609.65V1808.86M1723.55 1609.65H1969.35M1723.55 1609.65V1808.86M1969.35 1609.65H2215.15M1969.35 1609.65V1808.86M2215.15 1609.65H2460.95M2215.15 1609.65V1808.86M2460.95 1609.65H2706.75M2460.95 1609.65V1808.86M2706.75 1609.65H2952.55M2706.75 1609.65V1808.86M2952.55 1609.65H3198.35M2952.55 1609.65V1808.86M3198.35 1609.65V1808.86M-242.863 1808.86H-488.664M-242.863 1808.86H2.93818M-242.863 1808.86V2008.08M-488.664 1808.86V2008.08M2.93818 1808.86H248.739M2.93818 1808.86V2008.08M248.739 1808.86H494.54M248.739 1808.86V2008.08M494.54 1808.86H740.341M494.54 1808.86V2008.08M740.341 1808.86H986.143M740.341 1808.86V2008.08M986.143 1808.86H1231.94M986.143 1808.86V2008.08M1231.94 1808.86H1477.74M1231.94 1808.86V2008.08M1477.74 1808.86H1723.55M1477.74 1808.86V2008.08M1723.55 1808.86H1969.35M1723.55 1808.86V2008.08M1969.35 1808.86H2215.15M1969.35 1808.86V2008.08M2215.15 1808.86H2460.95M2215.15 1808.86V2008.08M2460.95 1808.86H2706.75M2460.95 1808.86V2008.08M2706.75 1808.86H2952.55M2706.75 1808.86V2008.08M2952.55 1808.86H3198.35M2952.55 1808.86V2008.08M3198.35 1808.86V2008.08M-242.863 2008.08H-488.664M-242.863 2008.08H2.93818M-242.863 2008.08V2207.29M-488.664 2008.08V2207.29M2.93818 2008.08V2207.29M2.93818 2008.08H125.839H248.739M248.739 2008.08H494.54M248.739 2008.08V2207.29M494.54 2008.08H740.341M494.54 2008.08V2207.29M740.341 2008.08H986.143M740.341 2008.08V2207.29M986.143 2008.08H1231.94M986.143 2008.08V2207.29M1231.94 2008.08H1477.74M1231.94 2008.08V2207.29M1477.74 2008.08H1723.55M1477.74 2008.08V2207.29M1723.55 2008.08H1969.35M1723.55 2008.08V2207.29M1969.35 2008.08H2215.15M1969.35 2008.08V2207.29M2215.15 2008.08H2460.95M2215.15 2008.08V2207.29M2460.95 2008.08H2706.75M2460.95 2008.08V2207.29M2706.75 2008.08H2952.55M2706.75 2008.08V2207.29M2952.55 2008.08H3198.35M2952.55 2008.08V2207.29M3198.35 2008.08V2207.29M-242.863 2207.29H-488.664M-242.863 2207.29H2.93818M-242.863 2207.29V2406.51M-488.664 2207.29V2406.51M2.93818 2207.29H248.739M2.93818 2207.29V2406.51M248.739 2207.29H494.54M248.739 2207.29V2406.51M494.54 2207.29H740.341M494.54 2207.29V2406.51M740.341 2207.29H986.143M740.341 2207.29V2406.51M986.143 2207.29H1231.94M986.143 2207.29V2406.51M1231.94 2207.29H1477.74M1231.94 2207.29V2406.51M1477.74 2207.29H1723.55M1477.74 2207.29V2406.51M1723.55 2207.29H1969.35M1723.55 2207.29V2406.51M1969.35 2207.29H2215.15M1969.35 2207.29V2406.51M2215.15 2207.29H2460.95M2215.15 2207.29V2406.51M2460.95 2207.29H2706.75M2460.95 2207.29V2406.51M2706.75 2207.29H2952.55M2706.75 2207.29V2406.51M2952.55 2207.29H3198.35M2952.55 2207.29V2406.51M3198.35 2207.29V2406.51M-242.863 2406.51H-488.664M-242.863 2406.51H2.93818M-242.863 2406.51V2605.72M-488.664 2406.51V2605.72M2.93818 2406.51H248.739M2.93818 2406.51V2605.72M248.739 2406.51H494.54M248.739 2406.51V2605.72M494.54 2406.51H740.341M494.54 2406.51V2605.72M740.341 2406.51H986.143M740.341 2406.51V2605.72M986.143 2406.51H1231.94M986.143 2406.51V2605.72M1231.94 2406.51H1477.74M1231.94 2406.51V2605.72M1477.74 2406.51H1723.55M1477.74 2406.51V2605.72M1723.55 2406.51H1969.35M1723.55 2406.51V2605.72M1969.35 2406.51H2215.15M1969.35 2406.51V2605.72M2215.15 2406.51H2460.95M2215.15 2406.51V2605.72M2460.95 2406.51H2706.75M2460.95 2406.51V2605.72M2706.75 2406.51H2952.55M2706.75 2406.51V2605.72M2952.55 2406.51H3198.35M2952.55 2406.51V2605.72M3198.35 2406.51V2605.72M-242.863 2605.72H-488.664M-242.863 2605.72H2.93818M-242.863 2605.72V2804.93M-488.664 2605.72V2804.93M2.93818 2605.72H248.739M2.93818 2605.72V2804.93M248.739 2605.72H494.54M248.739 2605.72V2804.93M494.54 2605.72H740.341M494.54 2605.72V2804.93M740.341 2605.72H986.143M740.341 2605.72V2804.93M986.143 2605.72H1231.94M986.143 2605.72V2804.93M1231.94 2605.72H1477.74M1231.94 2605.72V2804.93M1477.74 2605.72H1723.55M1477.74 2605.72V2804.93M1723.55 2605.72H1969.35M1723.55 2605.72V2804.93M1969.35 2605.72H2215.15M1969.35 2605.72V2804.93M2215.15 2605.72H2460.95M2215.15 2605.72V2804.93M2460.95 2605.72H2706.75M2460.95 2605.72V2804.93M2706.75 2605.72H2952.55M2706.75 2605.72V2804.93M2952.55 2605.72H3198.35M2952.55 2605.72V2804.93M3198.35 2605.72V2804.93M-242.863 2804.93H-488.664M-242.863 2804.93H2.93818M-242.863 2804.93V3004.15M-488.664 2804.93V3004.15H-242.863M2.93818 2804.93H248.739M2.93818 2804.93V3004.15M248.739 2804.93H494.54M248.739 2804.93V3004.15M494.54 2804.93H740.341M494.54 2804.93V3004.15M740.341 2804.93H986.143M740.341 2804.93V3004.15M986.143 2804.93H1231.94M986.143 2804.93V3004.15M1231.94 2804.93H1477.74M1231.94 2804.93V3004.15M1477.74 2804.93H1723.55M1477.74 2804.93V3004.15M1723.55 2804.93H1969.35M1723.55 2804.93V3004.15M1969.35 2804.93H2215.15M1969.35 2804.93V3004.15M2215.15 2804.93H2460.95M2215.15 2804.93V3004.15M2460.95 2804.93H2706.75M2460.95 2804.93V3004.15M2706.75 2804.93H2952.55M2706.75 2804.93V3004.15M2952.55 2804.93H3198.35M2952.55 2804.93V3004.15M3198.35 2804.93V3004.15H2952.55M-242.863 3004.15H2.93818M2.93818 3004.15H248.739M248.739 3004.15H494.54M494.54 3004.15H740.341M740.341 3004.15H986.143M986.143 3004.15H1231.94M1231.94 3004.15H1477.74M1477.74 3004.15H1723.55M1723.55 3004.15H1969.35M1969.35 3004.15H2215.15M2215.15 3004.15H2460.95M2460.95 3004.15H2706.75M2706.75 3004.15H2952.55" stroke="url(#paint4_radial_137_289)" stroke-opacity="0.2"/>
</g>
<defs>
<filter id="filter0_dd_137_289" x="1221.94" y="1407.44" width="265.801" height="219.215" filterUnits="userSpaceOnUse" color-interpolation-filters="sRGB">
<feFlood flood-opacity="0" result="BackgroundImageFix"/>
<feColorMatrix in="SourceAlpha" type="matrix" values="0 0 0 0 0 0 0 0 0 0 0 0 0 0 0 0 0 0 127 0" result="hardAlpha"/>
<feMorphology radius="3" operator="erode" in="SourceAlpha" result="effect1_dropShadow_137_289"/>
<feOffset dy="7"/>
<feGaussianBlur stdDeviation="6.5"/>
<feColorMatrix type="matrix" values="0 0 0 0 0 0 0 0 0 0 0 0 0 0 0 0 0 0 0.3 0"/>
<feBlend mode="normal" in2="BackgroundImageFix" result="effect1_dropShadow_137_289"/>
<feColorMatrix in="SourceAlpha" type="matrix" values="0 0 0 0 0 0 0 0 0 0 0 0 0 0 0 0 0 0 127 0" result="hardAlpha"/>
<feOffset dy="2"/>
<feGaussianBlur stdDeviation="2"/>
<feColorMatrix type="matrix" values="0 0 0 0 0 0 0 0 0 0 0 0 0 0 0 0 0 0 0.4 0"/>
<feBlend mode="normal" in2="effect1_dropShadow_137_289" result="effect2_dropShadow_137_289"/>
<feBlend mode="normal" in="SourceGraphic" in2="effect2_dropShadow_137_289" result="shape"/>
</filter>
<radialGradient id="paint0_radial_137_289" cx="0" cy="0" r="1" gradientUnits="userSpaceOnUse" gradientTransform="translate(375.941 1614.39) rotate(90.8731) scale(141.209 315.998)">
<stop stop-color="white" stop-opacity="0.8"/>
<stop offset="1" stop-color="#05041F"/>
</radialGradient>
<radialGradient id="paint1_radial_137_289" cx="0" cy="0" r="1" gradientUnits="userSpaceOnUse" gradientTransform="translate(1356.52 1014.74) rotate(90) scale(149.908 335.492)">
<stop stop-color="white" stop-opacity="0.8"/>
<stop offset="1" stop-color="#05041F"/>
</radialGradient>
<radialGradient id="paint2_radial_137_289" cx="0" cy="0" r="1" gradientUnits="userSpaceOnUse" gradientTransform="translate(1109.34 2203.56) rotate(92.5541) scale(144.822 323.89)">
<stop stop-color="white" stop-opacity="0.8"/>
<stop offset="1" stop-color="#05041F"/>
</radialGradient>
<radialGradient id="paint3_radial_137_289" cx="0" cy="0" r="1" gradientUnits="userSpaceOnUse" gradientTransform="translate(2098.7 1811.36) rotate(90.8728) scale(141.209 315.999)">
<stop stop-color="white" stop-opacity="0.8"/>
<stop offset="1" stop-color="#05041F"/>
</radialGradient>
<radialGradient id="paint4_radial_137_289" cx="0" cy="0" r="1" gradientUnits="userSpaceOnUse" gradientTransform="translate(1356.9 1511.29) rotate(90) scale(1058.07 1305.51)">
<stop stop-color="white"/>
<stop offset="1" stop-color="white" stop-opacity="0"/>
</radialGradient>
</defs>
</svg>
