<svg width="2365" height="1893" viewBox="0 0 2365 1893" fill="none" xmlns="http://www.w3.org/2000/svg">
<mask id="mask0_366_721" style="mask-type:luminance" maskUnits="userSpaceOnUse" x="0" y="0" width="2365" height="1893">
<path d="M0 0H2365V1892.87H0V0Z" fill="white"/>
</mask>
<g mask="url(#mask0_366_721)">
<path d="M578.23 867.126H404.442V1031.75H578.23V867.126Z" fill="url(#paint0_radial_366_721)" fill-opacity="0.06"/>
<path d="M1273.38 373.268H1099.59V537.888H1273.38V373.268Z" fill="url(#paint1_radial_366_721)" fill-opacity="0.06"/>
<path d="M1099.59 1360.98H925.803V1525.6H1099.59V1360.98Z" fill="url(#paint2_radial_366_721)" fill-opacity="0.06"/>
<g filter="url(#filter0_dd_366_721)">
<path d="M1794.74 1031.74H1620.96V1196.36H1794.74V1031.74Z" fill="url(#paint3_radial_366_721)" fill-opacity="0.06"/>
</g>
<path d="M1273.38 867.126H1099.59V1031.75H1273.38V867.126Z" fill="url(#paint4_radial_366_721)" fill-opacity="0.06"/>
<path d="M56.8657 -285.205H-116.922V-120.585M56.8657 -285.205V-120.585M56.8657 -285.205H230.653M-116.922 -120.585H56.8657M-116.922 -120.585V44.0321M56.8657 -120.585H230.653M56.8657 -120.585V44.0321M230.653 -285.205V-120.585M230.653 -285.205H404.441M230.653 -120.585H404.441M230.653 -120.585V44.0321M56.8657 44.0321H-116.922M56.8657 44.0321H230.653M56.8657 44.0321V208.652M-116.922 44.0321V208.652M404.441 -285.205V-120.585M404.441 -285.205H578.229M404.441 -120.585H578.229M404.441 -120.585V44.0321M230.653 44.0321H404.441M230.653 44.0321V208.652M578.229 -285.205V-120.585M578.229 -285.205H752.016M578.229 -120.585H752.016M578.229 -120.585V44.0321M404.441 44.0321H578.229M404.441 44.0321V208.652M752.016 -285.205V-120.585M752.016 -285.205H925.804M752.016 -120.585H925.804M752.016 -120.585V44.0321M578.229 44.0321H752.016M578.229 44.0321V208.652M925.804 -285.205V-120.585M925.804 -285.205H1099.59M925.804 -120.585H1099.59M925.804 -120.585V44.0321M752.016 44.0321H925.804M752.016 44.0321V208.652M1099.59 -285.205V-120.585M1099.59 -285.205H1273.38M1099.59 -120.585H1273.38M1099.59 -120.585V44.0321M925.804 44.0321H1099.59M925.804 44.0321V208.652M1273.38 -285.205V-120.585M1273.38 -285.205H1447.17M1273.38 -120.585H1447.17M1273.38 -120.585V44.0321M1099.59 44.0321H1273.38M1099.59 44.0321V208.652M1447.17 -285.205V-120.585M1447.17 -285.205H1620.95M1447.17 -120.585H1620.95M1447.17 -120.585V44.0321M1273.38 44.0321H1447.17M1273.38 44.0321V208.652M1620.95 -285.205V-120.585M1620.95 -285.205H1794.74M1620.95 -120.585H1794.74M1620.95 -120.585V44.0321M1447.17 44.0321H1620.95M1447.17 44.0321V208.652M1794.74 -285.205V-120.585M1794.74 -285.205H1968.53M1794.74 -120.585H1968.53M1794.74 -120.585V44.0321M1620.95 44.0321H1794.74M1620.95 44.0321V208.652M1968.53 -285.205V-120.585M1968.53 -285.205H2142.32M1968.53 -120.585H2142.32M1968.53 -120.585V44.0321M1794.74 44.0321H1968.53M1794.74 44.0321V208.652M2142.32 -285.205V-120.585M2142.32 -285.205H2316.11M2142.32 -120.585H2316.11M2142.32 -120.585V44.0321M1968.53 44.0321H2142.32M1968.53 44.0321V208.652M2316.11 -285.205V-120.585M2316.11 -285.205H2489.89V-120.585M2316.11 -120.585H2489.89M2316.11 -120.585V44.0321M2142.32 44.0321H2316.11M2142.32 44.0321V208.652M2489.89 -120.585V44.0321M2316.11 44.0321H2489.89M2316.11 44.0321V208.652M2489.89 44.0321V208.652M56.8657 208.652H-116.922M56.8657 208.652H230.653M56.8657 208.652V373.269M-116.922 208.652V373.269M230.653 208.652H404.441M230.653 208.652V373.269M404.441 208.652H578.229M404.441 208.652V373.269M578.229 208.652H752.016M578.229 208.652V373.269M752.016 208.652H925.804M752.016 208.652V373.269M925.804 208.652H1099.59M925.804 208.652V373.269M1099.59 208.652H1273.38M1099.59 208.652V373.269M1273.38 208.652H1447.17M1273.38 208.652V373.269M1447.17 208.652H1620.95M1447.17 208.652V373.269M1620.95 208.652H1794.74M1620.95 208.652V373.269M1794.74 208.652H1968.53M1794.74 208.652V373.269M1968.53 208.652H2142.32M1968.53 208.652V373.269M2142.32 208.652H2316.11M2142.32 208.652V373.269M2316.11 208.652H2489.89M2316.11 208.652V373.269M2489.89 208.652V373.269M56.8657 373.269H-116.922M56.8657 373.269H230.653M56.8657 373.269V537.889M-116.922 373.269V537.889M230.653 373.269H404.441M230.653 373.269V537.889M404.441 373.269H578.229M404.441 373.269V537.889M578.229 373.269H752.016M578.229 373.269V537.889M752.016 373.269H925.804M752.016 373.269V537.889M925.804 373.269H1099.59M925.804 373.269V537.889M1099.59 373.269H1273.38M1099.59 373.269V537.889M1273.38 373.269H1447.17M1273.38 373.269V537.889M1447.17 373.269H1620.95M1447.17 373.269V537.889M1620.95 373.269H1794.74M1620.95 373.269V537.889M1794.74 373.269H1968.53M1794.74 373.269V537.889M1968.53 373.269H2142.32M1968.53 373.269V537.889M2142.32 373.269H2316.11M2142.32 373.269V537.889M2316.11 373.269H2489.89M2316.11 373.269V537.889M2489.89 373.269V537.889M56.8657 537.889H-116.922M56.8657 537.889H230.653M56.8657 537.889V702.508M-116.922 537.889V702.508M230.653 537.889H404.441M230.653 537.889V702.508M404.441 537.889H578.229M404.441 537.889V702.508M578.229 537.889H752.016M578.229 537.889V702.508M752.016 537.889H925.804M752.016 537.889V702.508M925.804 537.889H1099.59M925.804 537.889V702.508M1099.59 537.889H1273.38M1099.59 537.889V702.508M1273.38 537.889H1447.17M1273.38 537.889V702.508M1447.17 537.889H1620.95M1447.17 537.889V702.508M1620.95 537.889H1794.74M1620.95 537.889V702.508M1794.74 537.889H1968.53M1794.74 537.889V702.508M1968.53 537.889H2142.32M1968.53 537.889V702.508M2142.32 537.889H2316.11M2142.32 537.889V702.508M2316.11 537.889H2489.89M2316.11 537.889V702.508M2489.89 537.889V702.508M56.8657 702.508H-116.922M56.8657 702.508H230.653M56.8657 702.508V867.125M-116.922 702.508V867.125M230.653 702.508H404.441M230.653 702.508V867.125M404.441 702.508H578.229M404.441 702.508V867.125M578.229 702.508H752.016M578.229 702.508V867.125M752.016 702.508H925.804M752.016 702.508V867.125M925.804 702.508H1099.59M925.804 702.508V867.125M1099.59 702.508H1273.38M1099.59 702.508V867.125M1273.38 702.508H1447.17M1273.38 702.508V867.125M1447.17 702.508H1620.95M1447.17 702.508V867.125M1620.95 702.508H1794.74M1620.95 702.508V867.125M1794.74 702.508H1968.53M1794.74 702.508V867.125M1968.53 702.508H2142.32M1968.53 702.508V867.125M2142.32 702.508H2316.11M2142.32 702.508V867.125M2316.11 702.508H2489.89M2316.11 702.508V867.125M2489.89 702.508V867.125M56.8657 867.125H-116.922M56.8657 867.125H230.653M56.8657 867.125V1031.75M-116.922 867.125V1031.75M230.653 867.125H404.441M230.653 867.125V1031.75M404.441 867.125H578.229M404.441 867.125V1031.75M578.229 867.125H752.016M578.229 867.125V1031.75M752.016 867.125H925.804M752.016 867.125V1031.75M925.804 867.125H1099.59M925.804 867.125V1031.75M1099.59 867.125H1273.38M1099.59 867.125V1031.75M1273.38 867.125H1447.17M1273.38 867.125V1031.75M1447.17 867.125H1620.95M1447.17 867.125V1031.75M1620.95 867.125H1794.74M1620.95 867.125V1031.75M1794.74 867.125H1968.53M1794.74 867.125V1031.75M1968.53 867.125H2142.32M1968.53 867.125V1031.75M2142.32 867.125H2316.11M2142.32 867.125V1031.75M2316.11 867.125H2489.89M2316.11 867.125V1031.75M2489.89 867.125V1031.75M56.8657 1031.75H-116.922M56.8657 1031.75H230.653M56.8657 1031.75V1196.36M-116.922 1031.75V1196.36M230.653 1031.75H404.441M230.653 1031.75V1196.36M404.441 1031.75H578.229M404.441 1031.75V1196.36M578.229 1031.75H752.016M578.229 1031.75V1196.36M752.016 1031.75H925.804M752.016 1031.75V1196.36M925.804 1031.75H1099.59M925.804 1031.75V1196.36M1099.59 1031.75H1273.38M1099.59 1031.75V1196.36M1273.38 1031.75H1447.17M1273.38 1031.75V1196.36M1447.17 1031.75H1620.95M1447.17 1031.75V1196.36M1620.95 1031.75H1794.74M1620.95 1031.75V1196.36M1794.74 1031.75H1968.53M1794.74 1031.75V1196.36M1968.53 1031.75H2142.32M1968.53 1031.75V1196.36M2142.32 1031.75H2316.11M2142.32 1031.75V1196.36M2316.11 1031.75H2489.89M2316.11 1031.75V1196.36M2489.89 1031.75V1196.36M56.8657 1196.36H-116.922M56.8657 1196.36H230.653M56.8657 1196.36V1360.98M-116.922 1196.36V1360.98M230.653 1196.36H404.441M230.653 1196.36V1360.98M404.441 1196.36H578.229M404.441 1196.36V1360.98M578.229 1196.36H752.016M578.229 1196.36V1360.98M752.016 1196.36H925.804M752.016 1196.36V1360.98M925.804 1196.36H1099.59M925.804 1196.36V1360.98M1099.59 1196.36H1273.38M1099.59 1196.36V1360.98M1273.38 1196.36H1447.17M1273.38 1196.36V1360.98M1447.17 1196.36H1620.95M1447.17 1196.36V1360.98M1620.95 1196.36H1794.74M1620.95 1196.36V1360.98M1794.74 1196.36H1968.53M1794.74 1196.36V1360.98M1968.53 1196.36H2142.32M1968.53 1196.36V1360.98M2142.32 1196.36H2316.11M2142.32 1196.36V1360.98M2316.11 1196.36H2489.89M2316.11 1196.36V1360.98M2489.89 1196.36V1360.98M56.8657 1360.98H-116.922M56.8657 1360.98H230.653M56.8657 1360.98V1525.6M-116.922 1360.98V1525.6M230.653 1360.98V1525.6M230.653 1360.98H317.547H404.441M404.441 1360.98H578.229M404.441 1360.98V1525.6M578.229 1360.98H752.016M578.229 1360.98V1525.6M752.016 1360.98H925.804M752.016 1360.98V1525.6M925.804 1360.98H1099.59M925.804 1360.98V1525.6M1099.59 1360.98H1273.38M1099.59 1360.98V1525.6M1273.38 1360.98H1447.17M1273.38 1360.98V1525.6M1447.17 1360.98H1620.95M1447.17 1360.98V1525.6M1620.95 1360.98H1794.74M1620.95 1360.98V1525.6M1794.74 1360.98H1968.53M1794.74 1360.98V1525.6M1968.53 1360.98H2142.32M1968.53 1360.98V1525.6M2142.32 1360.98H2316.11M2142.32 1360.98V1525.6M2316.11 1360.98H2489.89M2316.11 1360.98V1525.6M2489.89 1360.98V1525.6M56.8657 1525.6H-116.922M56.8657 1525.6H230.653M56.8657 1525.6V1690.22M-116.922 1525.6V1690.22M230.653 1525.6H404.441M230.653 1525.6V1690.22M404.441 1525.6H578.229M404.441 1525.6V1690.22M578.229 1525.6H752.016M578.229 1525.6V1690.22M752.016 1525.6H925.804M752.016 1525.6V1690.22M925.804 1525.6H1099.59M925.804 1525.6V1690.22M1099.59 1525.6H1273.38M1099.59 1525.6V1690.22M1273.38 1525.6H1447.17M1273.38 1525.6V1690.22M1447.17 1525.6H1620.95M1447.17 1525.6V1690.22M1620.95 1525.6H1794.74M1620.95 1525.6V1690.22M1794.74 1525.6H1968.53M1794.74 1525.6V1690.22M1968.53 1525.6H2142.32M1968.53 1525.6V1690.22M2142.32 1525.6H2316.11M2142.32 1525.6V1690.22M2316.11 1525.6H2489.89M2316.11 1525.6V1690.22M2489.89 1525.6V1690.22M56.8657 1690.22H-116.922M56.8657 1690.22H230.653M56.8657 1690.22V1854.84M-116.922 1690.22V1854.84M230.653 1690.22H404.441M230.653 1690.22V1854.84M404.441 1690.22H578.229M404.441 1690.22V1854.84M578.229 1690.22H752.016M578.229 1690.22V1854.84M752.016 1690.22H925.804M752.016 1690.22V1854.84M925.804 1690.22H1099.59M925.804 1690.22V1854.84M1099.59 1690.22H1273.38M1099.59 1690.22V1854.84M1273.38 1690.22H1447.17M1273.38 1690.22V1854.84M1447.17 1690.22H1620.95M1447.17 1690.22V1854.84M1620.95 1690.22H1794.74M1620.95 1690.22V1854.84M1794.74 1690.22H1968.53M1794.74 1690.22V1854.84M1968.53 1690.22H2142.32M1968.53 1690.22V1854.84M2142.32 1690.22H2316.11M2142.32 1690.22V1854.84M2316.11 1690.22H2489.89M2316.11 1690.22V1854.84M2489.89 1690.22V1854.84M56.8657 1854.84H-116.922M56.8657 1854.84H230.653M56.8657 1854.84V2019.46M-116.922 1854.84V2019.46M230.653 1854.84H404.441M230.653 1854.84V2019.46M404.441 1854.84H578.229M404.441 1854.84V2019.46M578.229 1854.84H752.016M578.229 1854.84V2019.46M752.016 1854.84H925.804M752.016 1854.84V2019.46M925.804 1854.84H1099.59M925.804 1854.84V2019.46M1099.59 1854.84H1273.38M1099.59 1854.84V2019.46M1273.38 1854.84H1447.17M1273.38 1854.84V2019.46M1447.17 1854.84H1620.95M1447.17 1854.84V2019.46M1620.95 1854.84H1794.74M1620.95 1854.84V2019.46M1794.74 1854.84H1968.53M1794.74 1854.84V2019.46M1968.53 1854.84H2142.32M1968.53 1854.84V2019.46M2142.32 1854.84H2316.11M2142.32 1854.84V2019.46M2316.11 1854.84H2489.89M2316.11 1854.84V2019.46M2489.89 1854.84V2019.46M56.8657 2019.46H-116.922M56.8657 2019.46H230.653M56.8657 2019.46V2184.08M-116.922 2019.46V2184.08H56.8657M230.653 2019.46H404.441M230.653 2019.46V2184.08M404.441 2019.46H578.229M404.441 2019.46V2184.08M578.229 2019.46H752.016M578.229 2019.46V2184.08M752.016 2019.46H925.804M752.016 2019.46V2184.08M925.804 2019.46H1099.59M925.804 2019.46V2184.08M1099.59 2019.46H1273.38M1099.59 2019.46V2184.08M1273.38 2019.46H1447.17M1273.38 2019.46V2184.08M1447.17 2019.46H1620.95M1447.17 2019.46V2184.08M1620.95 2019.46H1794.74M1620.95 2019.46V2184.08M1794.74 2019.46H1968.53M1794.74 2019.46V2184.08M1968.53 2019.46H2142.32M1968.53 2019.46V2184.08M2142.32 2019.46H2316.11M2142.32 2019.46V2184.08M2316.11 2019.46H2489.89M2316.11 2019.46V2184.08M2489.89 2019.46V2184.08H2316.11M56.8657 2184.08H230.653M230.653 2184.08H404.441M404.441 2184.08H578.229M578.229 2184.08H752.016M752.016 2184.08H925.804M925.804 2184.08H1099.59M1099.59 2184.08H1273.38M1273.38 2184.08H1447.17M1447.17 2184.08H1620.95M1620.95 2184.08H1794.74M1794.74 2184.08H1968.53M1968.53 2184.08H2142.32M2142.32 2184.08H2316.11" stroke="url(#paint5_radial_366_721)" stroke-opacity="0.2"/>
</g>
<defs>
<filter id="filter0_dd_366_721" x="1610.96" y="1028.74" width="193.788" height="184.617" filterUnits="userSpaceOnUse" color-interpolation-filters="sRGB">
<feFlood flood-opacity="0" result="BackgroundImageFix"/>
<feColorMatrix in="SourceAlpha" type="matrix" values="0 0 0 0 0 0 0 0 0 0 0 0 0 0 0 0 0 0 127 0" result="hardAlpha"/>
<feMorphology radius="3" operator="erode" in="SourceAlpha" result="effect1_dropShadow_366_721"/>
<feOffset dy="7"/>
<feGaussianBlur stdDeviation="6.5"/>
<feColorMatrix type="matrix" values="0 0 0 0 0 0 0 0 0 0 0 0 0 0 0 0 0 0 0.3 0"/>
<feBlend mode="normal" in2="BackgroundImageFix" result="effect1_dropShadow_366_721"/>
<feColorMatrix in="SourceAlpha" type="matrix" values="0 0 0 0 0 0 0 0 0 0 0 0 0 0 0 0 0 0 127 0" result="hardAlpha"/>
<feOffset dy="2"/>
<feGaussianBlur stdDeviation="2"/>
<feColorMatrix type="matrix" values="0 0 0 0 0 0 0 0 0 0 0 0 0 0 0 0 0 0 0.4 0"/>
<feBlend mode="normal" in2="effect1_dropShadow_366_721" result="effect2_dropShadow_366_721"/>
<feBlend mode="normal" in="SourceGraphic" in2="effect2_dropShadow_366_721" result="shape"/>
</filter>
<radialGradient id="paint0_radial_366_721" cx="0" cy="0" r="1" gradientUnits="userSpaceOnUse" gradientTransform="translate(494.376 1035.66) rotate(90.747) scale(116.683 223.426)">
<stop stop-color="white" stop-opacity="0.8"/>
<stop offset="1" stop-color="#05041F"/>
</radialGradient>
<radialGradient id="paint1_radial_366_721" cx="0" cy="0" r="1" gradientUnits="userSpaceOnUse" gradientTransform="translate(1187.67 540.142) rotate(90) scale(123.876 237.202)">
<stop stop-color="white" stop-opacity="0.8"/>
<stop offset="1" stop-color="#05041F"/>
</radialGradient>
<radialGradient id="paint2_radial_366_721" cx="0" cy="0" r="1" gradientUnits="userSpaceOnUse" gradientTransform="translate(1012.91 1522.52) rotate(92.1857) scale(119.641 229.059)">
<stop stop-color="white" stop-opacity="0.8"/>
<stop offset="1" stop-color="#05041F"/>
</radialGradient>
<radialGradient id="paint3_radial_366_721" cx="0" cy="0" r="1" gradientUnits="userSpaceOnUse" gradientTransform="translate(1712.41 1198.42) rotate(90.7468) scale(116.684 223.426)">
<stop stop-color="white" stop-opacity="0.8"/>
<stop offset="1" stop-color="#F44324"/>
</radialGradient>
<radialGradient id="paint4_radial_366_721" cx="0" cy="0" r="1" gradientUnits="userSpaceOnUse" gradientTransform="translate(1187.79 1032.77) rotate(90) scale(126.756 242.718)">
<stop stop-color="white" stop-opacity="0.8"/>
<stop offset="1" stop-color="#05041F"/>
</radialGradient>
<radialGradient id="paint5_radial_366_721" cx="0" cy="0" r="1" gradientUnits="userSpaceOnUse" gradientTransform="translate(1187.94 950.466) rotate(90) scale(874.331 923.03)">
<stop stop-color="white"/>
<stop offset="1" stop-color="white" stop-opacity="0"/>
</radialGradient>
</defs>
</svg>
