<svg width="2526" height="2485" viewBox="0 0 2526 2485" fill="none" xmlns="http://www.w3.org/2000/svg">
<mask id="mask0_137_279" style="mask-type:luminance" maskUnits="userSpaceOnUse" x="0" y="0" width="2526" height="2485">
<path d="M0 0H2526V2485H0V0Z" fill="white"/>
</mask>
<g mask="url(#mask0_137_279)">
<path d="M672.152 1200.33H498.364V1364.95H672.152V1200.33Z" fill="url(#paint0_radial_137_279)" fill-opacity="0.06"/>
<path d="M1367.3 706.473H1193.51V871.093H1367.3V706.473Z" fill="url(#paint1_radial_137_279)" fill-opacity="0.06"/>
<path d="M1193.51 1694.18H1019.73V1858.8H1193.51V1694.18Z" fill="url(#paint2_radial_137_279)" fill-opacity="0.06"/>
<g filter="url(#filter0_dd_137_279)">
<path d="M1888.66 1364.95H1714.88V1529.57H1888.66V1364.95Z" fill="url(#paint3_radial_137_279)" fill-opacity="0.06"/>
</g>
<path d="M1367.3 1200.33H1193.51V1364.95H1367.3V1200.33Z" fill="url(#paint4_radial_137_279)" fill-opacity="0.06"/>
<path d="M150.788 48H-23V212.62M150.788 48V212.62M150.788 48H324.575M-23 212.62H150.788M-23 212.62V377.237M150.788 212.62H324.575M150.788 212.62V377.237M324.575 48V212.62M324.575 48H498.363M324.575 212.62H498.363M324.575 212.62V377.237M150.788 377.237H-23M150.788 377.237H324.575M150.788 377.237V541.857M-23 377.237V541.857M498.363 48V212.62M498.363 48H672.151M498.363 212.62H672.151M498.363 212.62V377.237M324.575 377.237H498.363M324.575 377.237V541.857M672.151 48V212.62M672.151 48H845.938M672.151 212.62H845.938M672.151 212.62V377.237M498.363 377.237H672.151M498.363 377.237V541.857M845.938 48V212.62M845.938 48H1019.73M845.938 212.62H1019.73M845.938 212.62V377.237M672.151 377.237H845.938M672.151 377.237V541.857M1019.73 48V212.62M1019.73 48H1193.51M1019.73 212.62H1193.51M1019.73 212.62V377.237M845.938 377.237H1019.73M845.938 377.237V541.857M1193.51 48V212.62M1193.51 48H1367.3M1193.51 212.62H1367.3M1193.51 212.62V377.237M1019.73 377.237H1193.51M1019.73 377.237V541.857M1367.3 48V212.62M1367.3 48H1541.09M1367.3 212.62H1541.09M1367.3 212.62V377.237M1193.51 377.237H1367.3M1193.51 377.237V541.857M1541.09 48V212.62M1541.09 48H1714.88M1541.09 212.62H1714.88M1541.09 212.62V377.237M1367.3 377.237H1541.09M1367.3 377.237V541.857M1714.88 48V212.62M1714.88 48H1888.66M1714.88 212.62H1888.66M1714.88 212.62V377.237M1541.09 377.237H1714.88M1541.09 377.237V541.857M1888.66 48V212.62M1888.66 48H2062.45M1888.66 212.62H2062.45M1888.66 212.62V377.237M1714.88 377.237H1888.66M1714.88 377.237V541.857M2062.45 48V212.62M2062.45 48H2236.24M2062.45 212.62H2236.24M2062.45 212.62V377.237M1888.66 377.237H2062.45M1888.66 377.237V541.857M2236.24 48V212.62M2236.24 48H2410.03M2236.24 212.62H2410.03M2236.24 212.62V377.237M2062.45 377.237H2236.24M2062.45 377.237V541.857M2410.03 48V212.62M2410.03 48H2583.81V212.62M2410.03 212.62H2583.81M2410.03 212.62V377.237M2236.24 377.237H2410.03M2236.24 377.237V541.857M2583.81 212.62V377.237M2410.03 377.237H2583.81M2410.03 377.237V541.857M2583.81 377.237V541.857M150.788 541.857H-23M150.788 541.857H324.575M150.788 541.857V706.474M-23 541.857V706.474M324.575 541.857H498.363M324.575 541.857V706.474M498.363 541.857H672.151M498.363 541.857V706.474M672.151 541.857H845.938M672.151 541.857V706.474M845.938 541.857H1019.73M845.938 541.857V706.474M1019.73 541.857H1193.51M1019.73 541.857V706.474M1193.51 541.857H1367.3M1193.51 541.857V706.474M1367.3 541.857H1541.09M1367.3 541.857V706.474M1541.09 541.857H1714.88M1541.09 541.857V706.474M1714.88 541.857H1888.66M1714.88 541.857V706.474M1888.66 541.857H2062.45M1888.66 541.857V706.474M2062.45 541.857H2236.24M2062.45 541.857V706.474M2236.24 541.857H2410.03M2236.24 541.857V706.474M2410.03 541.857H2583.81M2410.03 541.857V706.474M2583.81 541.857V706.474M150.788 706.474H-23M150.788 706.474H324.575M150.788 706.474V871.093M-23 706.474V871.093M324.575 706.474H498.363M324.575 706.474V871.093M498.363 706.474H672.151M498.363 706.474V871.093M672.151 706.474H845.938M672.151 706.474V871.093M845.938 706.474H1019.73M845.938 706.474V871.093M1019.73 706.474H1193.51M1019.73 706.474V871.093M1193.51 706.474H1367.3M1193.51 706.474V871.093M1367.3 706.474H1541.09M1367.3 706.474V871.093M1541.09 706.474H1714.88M1541.09 706.474V871.093M1714.88 706.474H1888.66M1714.88 706.474V871.093M1888.66 706.474H2062.45M1888.66 706.474V871.093M2062.45 706.474H2236.24M2062.45 706.474V871.093M2236.24 706.474H2410.03M2236.24 706.474V871.093M2410.03 706.474H2583.81M2410.03 706.474V871.093M2583.81 706.474V871.093M150.788 871.093H-23M150.788 871.093H324.575M150.788 871.093V1035.71M-23 871.093V1035.71M324.575 871.093H498.363M324.575 871.093V1035.71M498.363 871.093H672.151M498.363 871.093V1035.71M672.151 871.093H845.938M672.151 871.093V1035.71M845.938 871.093H1019.73M845.938 871.093V1035.71M1019.73 871.093H1193.51M1019.73 871.093V1035.71M1193.51 871.093H1367.3M1193.51 871.093V1035.71M1367.3 871.093H1541.09M1367.3 871.093V1035.71M1541.09 871.093H1714.88M1541.09 871.093V1035.71M1714.88 871.093H1888.66M1714.88 871.093V1035.71M1888.66 871.093H2062.45M1888.66 871.093V1035.71M2062.45 871.093H2236.24M2062.45 871.093V1035.71M2236.24 871.093H2410.03M2236.24 871.093V1035.71M2410.03 871.093H2583.81M2410.03 871.093V1035.71M2583.81 871.093V1035.71M150.788 1035.71H-23M150.788 1035.71H324.575M150.788 1035.71V1200.33M-23 1035.71V1200.33M324.575 1035.71H498.363M324.575 1035.71V1200.33M498.363 1035.71H672.151M498.363 1035.71V1200.33M672.151 1035.71H845.938M672.151 1035.71V1200.33M845.938 1035.71H1019.73M845.938 1035.71V1200.33M1019.73 1035.71H1193.51M1019.73 1035.71V1200.33M1193.51 1035.71H1367.3M1193.51 1035.71V1200.33M1367.3 1035.71H1541.09M1367.3 1035.71V1200.33M1541.09 1035.71H1714.88M1541.09 1035.71V1200.33M1714.88 1035.71H1888.66M1714.88 1035.71V1200.33M1888.66 1035.71H2062.45M1888.66 1035.71V1200.33M2062.45 1035.71H2236.24M2062.45 1035.71V1200.33M2236.24 1035.71H2410.03M2236.24 1035.71V1200.33M2410.03 1035.71H2583.81M2410.03 1035.71V1200.33M2583.81 1035.71V1200.33M150.788 1200.33H-23M150.788 1200.33H324.575M150.788 1200.33V1364.95M-23 1200.33V1364.95M324.575 1200.33H498.363M324.575 1200.33V1364.95M498.363 1200.33H672.151M498.363 1200.33V1364.95M672.151 1200.33H845.938M672.151 1200.33V1364.95M845.938 1200.33H1019.73M845.938 1200.33V1364.95M1019.73 1200.33H1193.51M1019.73 1200.33V1364.95M1193.51 1200.33H1367.3M1193.51 1200.33V1364.95M1367.3 1200.33H1541.09M1367.3 1200.33V1364.95M1541.09 1200.33H1714.88M1541.09 1200.33V1364.95M1714.88 1200.33H1888.66M1714.88 1200.33V1364.95M1888.66 1200.33H2062.45M1888.66 1200.33V1364.95M2062.45 1200.33H2236.24M2062.45 1200.33V1364.95M2236.24 1200.33H2410.03M2236.24 1200.33V1364.95M2410.03 1200.33H2583.81M2410.03 1200.33V1364.95M2583.81 1200.33V1364.95M150.788 1364.95H-23M150.788 1364.95H324.575M150.788 1364.95V1529.57M-23 1364.95V1529.57M324.575 1364.95H498.363M324.575 1364.95V1529.57M498.363 1364.95H672.151M498.363 1364.95V1529.57M672.151 1364.95H845.938M672.151 1364.95V1529.57M845.938 1364.95H1019.73M845.938 1364.95V1529.57M1019.73 1364.95H1193.51M1019.73 1364.95V1529.57M1193.51 1364.95H1367.3M1193.51 1364.95V1529.57M1367.3 1364.95H1541.09M1367.3 1364.95V1529.57M1541.09 1364.95H1714.88M1541.09 1364.95V1529.57M1714.88 1364.95H1888.66M1714.88 1364.95V1529.57M1888.66 1364.95H2062.45M1888.66 1364.95V1529.57M2062.45 1364.95H2236.24M2062.45 1364.95V1529.57M2236.24 1364.95H2410.03M2236.24 1364.95V1529.57M2410.03 1364.95H2583.81M2410.03 1364.95V1529.57M2583.81 1364.95V1529.57M150.788 1529.57H-23M150.788 1529.57H324.575M150.788 1529.57V1694.19M-23 1529.57V1694.19M324.575 1529.57H498.363M324.575 1529.57V1694.19M498.363 1529.57H672.151M498.363 1529.57V1694.19M672.151 1529.57H845.938M672.151 1529.57V1694.19M845.938 1529.57H1019.73M845.938 1529.57V1694.19M1019.73 1529.57H1193.51M1019.73 1529.57V1694.19M1193.51 1529.57H1367.3M1193.51 1529.57V1694.19M1367.3 1529.57H1541.09M1367.3 1529.57V1694.19M1541.09 1529.57H1714.88M1541.09 1529.57V1694.19M1714.88 1529.57H1888.66M1714.88 1529.57V1694.19M1888.66 1529.57H2062.45M1888.66 1529.57V1694.19M2062.45 1529.57H2236.24M2062.45 1529.57V1694.19M2236.24 1529.57H2410.03M2236.24 1529.57V1694.19M2410.03 1529.57H2583.81M2410.03 1529.57V1694.19M2583.81 1529.57V1694.19M150.788 1694.19H-23M150.788 1694.19H324.575M150.788 1694.19V1858.81M-23 1694.19V1858.81M324.575 1694.19V1858.81M324.575 1694.19H411.469H498.363M498.363 1694.19H672.151M498.363 1694.19V1858.81M672.151 1694.19H845.938M672.151 1694.19V1858.81M845.938 1694.19H1019.73M845.938 1694.19V1858.81M1019.73 1694.19H1193.51M1019.73 1694.19V1858.81M1193.51 1694.19H1367.3M1193.51 1694.19V1858.81M1367.3 1694.19H1541.09M1367.3 1694.19V1858.81M1541.09 1694.19H1714.88M1541.09 1694.19V1858.81M1714.88 1694.19H1888.66M1714.88 1694.19V1858.81M1888.66 1694.19H2062.45M1888.66 1694.19V1858.81M2062.45 1694.19H2236.24M2062.45 1694.19V1858.81M2236.24 1694.19H2410.03M2236.24 1694.19V1858.81M2410.03 1694.19H2583.81M2410.03 1694.19V1858.81M2583.81 1694.19V1858.81M150.788 1858.81H-23M150.788 1858.81H324.575M150.788 1858.81V2023.42M-23 1858.81V2023.42M324.575 1858.81H498.363M324.575 1858.81V2023.42M498.363 1858.81H672.151M498.363 1858.81V2023.42M672.151 1858.81H845.938M672.151 1858.81V2023.42M845.938 1858.81H1019.73M845.938 1858.81V2023.42M1019.73 1858.81H1193.51M1019.73 1858.81V2023.42M1193.51 1858.81H1367.3M1193.51 1858.81V2023.42M1367.3 1858.81H1541.09M1367.3 1858.81V2023.42M1541.09 1858.81H1714.88M1541.09 1858.81V2023.42M1714.88 1858.81H1888.66M1714.88 1858.81V2023.42M1888.66 1858.81H2062.45M1888.66 1858.81V2023.42M2062.45 1858.81H2236.24M2062.45 1858.81V2023.42M2236.24 1858.81H2410.03M2236.24 1858.81V2023.42M2410.03 1858.81H2583.81M2410.03 1858.81V2023.42M2583.81 1858.81V2023.42M150.788 2023.42H-23M150.788 2023.42H324.575M150.788 2023.42V2188.04M-23 2023.42V2188.04M324.575 2023.42H498.363M324.575 2023.42V2188.04M498.363 2023.42H672.151M498.363 2023.42V2188.04M672.151 2023.42H845.938M672.151 2023.42V2188.04M845.938 2023.42H1019.73M845.938 2023.42V2188.04M1019.73 2023.42H1193.51M1019.73 2023.42V2188.04M1193.51 2023.42H1367.3M1193.51 2023.42V2188.04M1367.3 2023.42H1541.09M1367.3 2023.42V2188.04M1541.09 2023.42H1714.88M1541.09 2023.42V2188.04M1714.88 2023.42H1888.66M1714.88 2023.42V2188.04M1888.66 2023.42H2062.45M1888.66 2023.42V2188.04M2062.45 2023.42H2236.24M2062.45 2023.42V2188.04M2236.24 2023.42H2410.03M2236.24 2023.42V2188.04M2410.03 2023.42H2583.81M2410.03 2023.42V2188.04M2583.81 2023.42V2188.04M150.788 2188.04H-23M150.788 2188.04H324.575M150.788 2188.04V2352.66M-23 2188.04V2352.66M324.575 2188.04H498.363M324.575 2188.04V2352.66M498.363 2188.04H672.151M498.363 2188.04V2352.66M672.151 2188.04H845.938M672.151 2188.04V2352.66M845.938 2188.04H1019.73M845.938 2188.04V2352.66M1019.73 2188.04H1193.51M1019.73 2188.04V2352.66M1193.51 2188.04H1367.3M1193.51 2188.04V2352.66M1367.3 2188.04H1541.09M1367.3 2188.04V2352.66M1541.09 2188.04H1714.88M1541.09 2188.04V2352.66M1714.88 2188.04H1888.66M1714.88 2188.04V2352.66M1888.66 2188.04H2062.45M1888.66 2188.04V2352.66M2062.45 2188.04H2236.24M2062.45 2188.04V2352.66M2236.24 2188.04H2410.03M2236.24 2188.04V2352.66M2410.03 2188.04H2583.81M2410.03 2188.04V2352.66M2583.81 2188.04V2352.66M150.788 2352.66H-23M150.788 2352.66H324.575M150.788 2352.66V2517.28M-23 2352.66V2517.28H150.788M324.575 2352.66H498.363M324.575 2352.66V2517.28M498.363 2352.66H672.151M498.363 2352.66V2517.28M672.151 2352.66H845.938M672.151 2352.66V2517.28M845.938 2352.66H1019.73M845.938 2352.66V2517.28M1019.73 2352.66H1193.51M1019.73 2352.66V2517.28M1193.51 2352.66H1367.3M1193.51 2352.66V2517.28M1367.3 2352.66H1541.09M1367.3 2352.66V2517.28M1541.09 2352.66H1714.88M1541.09 2352.66V2517.28M1714.88 2352.66H1888.66M1714.88 2352.66V2517.28M1888.66 2352.66H2062.45M1888.66 2352.66V2517.28M2062.45 2352.66H2236.24M2062.45 2352.66V2517.28M2236.24 2352.66H2410.03M2236.24 2352.66V2517.28M2410.03 2352.66H2583.81M2410.03 2352.66V2517.28M2583.81 2352.66V2517.28H2410.03M150.788 2517.28H324.575M324.575 2517.28H498.363M498.363 2517.28H672.151M672.151 2517.28H845.938M845.938 2517.28H1019.73M1019.73 2517.28H1193.51M1193.51 2517.28H1367.3M1367.3 2517.28H1541.09M1541.09 2517.28H1714.88M1714.88 2517.28H1888.66M1888.66 2517.28H2062.45M2062.45 2517.28H2236.24M2236.24 2517.28H2410.03" stroke="url(#paint5_radial_137_279)" stroke-opacity="0.2"/>
</g>
<defs>
<filter id="filter0_dd_137_279" x="1704.88" y="1361.95" width="193.788" height="184.617" filterUnits="userSpaceOnUse" color-interpolation-filters="sRGB">
<feFlood flood-opacity="0" result="BackgroundImageFix"/>
<feColorMatrix in="SourceAlpha" type="matrix" values="0 0 0 0 0 0 0 0 0 0 0 0 0 0 0 0 0 0 127 0" result="hardAlpha"/>
<feMorphology radius="3" operator="erode" in="SourceAlpha" result="effect1_dropShadow_137_279"/>
<feOffset dy="7"/>
<feGaussianBlur stdDeviation="6.5"/>
<feColorMatrix type="matrix" values="0 0 0 0 0 0 0 0 0 0 0 0 0 0 0 0 0 0 0.3 0"/>
<feBlend mode="normal" in2="BackgroundImageFix" result="effect1_dropShadow_137_279"/>
<feColorMatrix in="SourceAlpha" type="matrix" values="0 0 0 0 0 0 0 0 0 0 0 0 0 0 0 0 0 0 127 0" result="hardAlpha"/>
<feOffset dy="2"/>
<feGaussianBlur stdDeviation="2"/>
<feColorMatrix type="matrix" values="0 0 0 0 0 0 0 0 0 0 0 0 0 0 0 0 0 0 0.4 0"/>
<feBlend mode="normal" in2="effect1_dropShadow_137_279" result="effect2_dropShadow_137_279"/>
<feBlend mode="normal" in="SourceGraphic" in2="effect2_dropShadow_137_279" result="shape"/>
</filter>
<radialGradient id="paint0_radial_137_279" cx="0" cy="0" r="1" gradientUnits="userSpaceOnUse" gradientTransform="translate(588.298 1368.86) rotate(90.747) scale(116.683 223.426)">
<stop stop-color="white" stop-opacity="0.8"/>
<stop offset="1" stop-color="#05041F"/>
</radialGradient>
<radialGradient id="paint1_radial_137_279" cx="0" cy="0" r="1" gradientUnits="userSpaceOnUse" gradientTransform="translate(1281.59 873.347) rotate(90) scale(123.876 237.202)">
<stop stop-color="white" stop-opacity="0.8"/>
<stop offset="1" stop-color="#05041F"/>
</radialGradient>
<radialGradient id="paint2_radial_137_279" cx="0" cy="0" r="1" gradientUnits="userSpaceOnUse" gradientTransform="translate(1106.83 1855.72) rotate(92.1857) scale(119.641 229.059)">
<stop stop-color="white" stop-opacity="0.8"/>
<stop offset="1" stop-color="#05041F"/>
</radialGradient>
<radialGradient id="paint3_radial_137_279" cx="0" cy="0" r="1" gradientUnits="userSpaceOnUse" gradientTransform="translate(1806.33 1531.63) rotate(90.7468) scale(116.684 223.426)">
<stop stop-color="white" stop-opacity="0.8"/>
<stop offset="1" stop-color="#F44324"/>
</radialGradient>
<radialGradient id="paint4_radial_137_279" cx="0" cy="0" r="1" gradientUnits="userSpaceOnUse" gradientTransform="translate(1281.71 1365.98) rotate(90) scale(126.756 242.718)">
<stop stop-color="white" stop-opacity="0.8"/>
<stop offset="1" stop-color="#05041F"/>
</radialGradient>
<radialGradient id="paint5_radial_137_279" cx="0" cy="0" r="1" gradientUnits="userSpaceOnUse" gradientTransform="translate(1281.86 1283.67) rotate(90) scale(874.331 923.03)">
<stop stop-color="white"/>
<stop offset="1" stop-color="white" stop-opacity="0"/>
</radialGradient>
</defs>
</svg>
