<svg width="753" height="41" viewBox="0 0 753 41" fill="none" xmlns="http://www.w3.org/2000/svg">
<path d="M30.2594 32.2108H20.7122C14.1976 32.2108 8.91859 26.9318 8.91859 20.4172C8.91859 13.8465 14.1976 8.56749 20.7122 8.56749H30.2594C35.3699 8.56749 39.7504 11.8809 41.3791 16.4299H49.5784C47.7252 7.44429 39.7504 0.648926 30.2594 0.648926H20.7122C9.81715 0.648926 1.00003 9.52221 1.00003 20.4172C1.00003 31.3123 9.81715 40.1294 20.7122 40.1294H30.2594C39.7504 40.1294 47.7252 33.334 49.5784 24.3484H41.3791C39.7504 28.9536 35.3699 32.2108 30.2594 32.2108Z" fill="#FAFFFD" stroke="#FAFFFD" stroke-width="0.78"/>
<path d="M92.635 0.648926H83.0878C72.1928 0.648926 63.3757 9.52221 63.3757 20.4172C63.3757 31.3123 72.1928 40.1294 83.0878 40.1294H92.635C103.53 40.1294 112.347 31.3123 112.347 20.4172C112.347 9.52221 103.53 0.648926 92.635 0.648926ZM92.635 32.2108H83.0878C76.5733 32.2108 71.2942 26.9318 71.2942 20.4172C71.2942 13.8465 76.5733 8.56749 83.0878 8.56749H92.635C99.1496 8.56749 104.429 13.8465 104.429 20.4172C104.429 26.9318 99.1496 32.2108 92.635 32.2108Z" fill="#FAFFFD" stroke="#FAFFFD" stroke-width="0.78"/>
<path d="M156.121 0.648926H127.984V40.1294H156.121C167.016 40.1294 175.833 31.3123 175.833 20.4172C175.833 9.52221 167.016 0.648926 156.121 0.648926ZM156.121 32.2108H136.015V8.56749H156.121C162.635 8.56749 167.914 13.8465 167.914 20.4172C167.914 26.9318 162.635 32.2108 156.121 32.2108Z" fill="#FAFFFD" stroke="#FAFFFD" stroke-width="0.78"/>
<path d="M199.488 8.73594H266.936V0.817383H191.457V40.2979H266.936V32.3793H199.488V24.1238H249.92V16.2052H199.488V8.73594Z" fill="#FAFFFD" stroke="#FAFFFD" stroke-width="0.78"/>
<path d="M364.621 0.648926H356.197L341.258 32.0985L326.319 0.648926H317.783L302.845 32.0985L287.906 0.648926H279.426L298.183 40.1294H307.45L322.051 9.46605L336.597 40.1294H345.863L363.61 2.83917L364.621 0.648926Z" fill="#FAFFFD" stroke="#FAFFFD" stroke-width="0.78"/>
<path d="M419.5 33.671L423.038 40.1294H432.753L410.907 0.648926H397.429L375.583 40.1294H385.298L388.892 33.671H419.5ZM415.119 25.8086H393.273L402.764 8.56749H405.572L415.119 25.8086Z" fill="#FAFFFD" stroke="#FAFFFD" stroke-width="0.78"/>
<path d="M497.83 0.648926H488.114L468.964 32.4916V32.2108H466.437L447.454 0.648926H437.739L461.494 40.1294H474.074L497.83 0.648926Z" fill="#FAFFFD" stroke="#FAFFFD" stroke-width="0.78"/>
<path d="M519.958 8.56749H559.719V0.648926H511.927V40.1294H559.719V32.2108H519.958V23.9553H542.647V16.0368H519.958V8.56749Z" fill="#FAFFFD" stroke="#FAFFFD" stroke-width="0.78"/>
<path d="M608.59 0.648926H575.4V40.1294H583.431V30.1891H608.59C616.734 30.1891 623.36 23.5622 623.36 15.419C623.36 7.27581 616.734 0.648926 608.59 0.648926ZM608.59 22.2705H583.431V8.56749H608.59C612.353 8.56749 615.442 11.6563 615.442 15.419C615.442 19.2379 612.353 22.2705 608.59 22.2705Z" fill="#FAFFFD" stroke="#FAFFFD" stroke-width="0.78"/>
<path d="M679.816 40.1294H689.082L682.287 27.3811C685.993 24.6854 688.408 20.3611 688.408 15.419C688.408 7.27581 681.781 0.648926 673.638 0.648926H638.763V40.1294H646.793V30.1891H673.638C673.919 30.1891 674.256 30.1329 674.537 30.1329L679.816 40.1294ZM646.793 22.2705V8.56749H673.638C677.457 8.56749 680.489 11.6563 680.489 15.419C680.489 19.2379 677.457 22.2705 673.638 22.2705H646.793Z" fill="#FAFFFD" stroke="#FAFFFD" stroke-width="0.78"/>
<path d="M732.223 0.648926H722.676C711.781 0.648926 702.964 9.52221 702.964 20.4172C702.964 31.3123 711.781 40.1294 722.676 40.1294H732.223C743.118 40.1294 751.935 31.3123 751.935 20.4172C751.935 9.52221 743.118 0.648926 732.223 0.648926ZM732.223 32.2108H722.676C716.161 32.2108 710.882 26.9318 710.882 20.4172C710.882 13.8465 716.161 8.56749 722.676 8.56749H732.223C738.737 8.56749 744.016 13.8465 744.016 20.4172C744.016 26.9318 738.737 32.2108 732.223 32.2108Z" fill="#FAFFFD" stroke="#FAFFFD" stroke-width="0.78"/>
</svg>
